<?xml version="1.0" encoding="UTF-8"?>
<!DOCTYPE svg PUBLIC "-//W3C//DTD SVG 1.0//EN" "http://www.w3.org/TR/2001/REC-SVG-20010904/DTD/svg10.dtd">
<!-- Creator: CorelDRAW 2017 -->
<svg xmlns="http://www.w3.org/2000/svg" xml:space="preserve" width="31px" height="31px" version="1.0" style="shape-rendering:geometricPrecision; text-rendering:geometricPrecision; image-rendering:optimizeQuality; fill-rule:evenodd; clip-rule:evenodd"
viewBox="0 0 0.84 0.84"
 xmlns:xlink="http://www.w3.org/1999/xlink">
 <defs>
  <style type="text/css">
   <![CDATA[
    .fil2 {fill:none}
    .fil1 {fill:#1A2957}
    .fil0 {fill:#213D8F}
    .fil5 {fill:#B9B9BE}
    .fil4 {fill:#D2D2D7}
    .fil3 {fill:white}
   ]]>
  </style>
   <clipPath id="id0">
    <path d="M0.84 0.42c0,-0.23 -0.19,-0.42 -0.42,-0.42 -0.23,0 -0.42,0.19 -0.42,0.42 0,0.23 0.19,0.42 0.42,0.42 0.23,0 0.42,-0.19 0.42,-0.42z"/>
   </clipPath>
 </defs>
 <g id="Слой_x0020_1">
  <metadata id="CorelCorpID_0Corel-Layer"/>
  <path class="fil0" d="M0.84 0.42c0,-0.23 -0.19,-0.42 -0.42,-0.42 -0.23,0 -0.42,0.19 -0.42,0.42 0,0.23 0.19,0.42 0.42,0.42 0.23,0 0.42,-0.19 0.42,-0.42z"/>
  <g style="clip-path:url(#id0)">
   <g id="_1662669759648">
    <path id="1" class="fil1" d="M0.84 0.42c0,-0.01 0,-0.02 0,-0.03l-0.17 -0.17 -0.49 0.19 0.18 0.19 0.01 0.01 0 -0.01 0 0 0 0.01 0.2 0.2c0.16,-0.06 0.27,-0.21 0.27,-0.39z"/>
   </g>
  </g>
  <path class="fil2" d="M0.84 0.42c0,-0.23 -0.19,-0.42 -0.42,-0.42 -0.23,0 -0.42,0.19 -0.42,0.42 0,0.23 0.19,0.42 0.42,0.42 0.23,0 0.42,-0.19 0.42,-0.42z"/>
  <path class="fil3" d="M0.38 0.48l0.19 0.15 0.1 -0.41 -0.49 0.19 0.15 0.05 0.27 -0.18 -0.22 0.2z"/>
  <path class="fil4" d="M0.33 0.46l0.04 0.15 0.01 -0.13 0.22 -0.2 -0.27 0.18z"/>
  <path class="fil5" d="M0.44 0.53l-0.07 0.08 0.01 -0.13 0.06 0.05z"/>
 </g>
</svg>
