<?xml version="1.0" encoding="UTF-8"?>
<!DOCTYPE svg PUBLIC "-//W3C//DTD SVG 1.0//EN" "http://www.w3.org/TR/2001/REC-SVG-20010904/DTD/svg10.dtd">
<!-- Creator: CorelDRAW 2017 -->
<svg xmlns="http://www.w3.org/2000/svg" xml:space="preserve" width="40px" height="30px" version="1.0" style="shape-rendering:geometricPrecision; text-rendering:geometricPrecision; image-rendering:optimizeQuality; fill-rule:evenodd; clip-rule:evenodd"
viewBox="0 0 23.83 17.87"
 xmlns:xlink="http://www.w3.org/1999/xlink">
 <defs>
  <style type="text/css">
   <![CDATA[
    .fil0 {fill:none}
    .fil1 {fill:white}
   ]]>
  </style>
 </defs>
 <g id="Слой_x0020_1">
  <metadata id="CorelCorpID_0Corel-Layer"/>
  <rect class="fil0" width="23.83" height="17.87"/>
  <path class="fil1" d="M20.27 2.76c0,0 -1.62,-1.72 -5.3,-1.97l0 0.55c0,0 2.02,-0.12 4.52,2.34 -1.89,-1.36 -4.58,-2.21 -7.58,-2.21 -2.99,0 -5.68,0.85 -7.57,2.21 2.51,-2.46 4.52,-2.34 4.52,-2.34l0 -0.55c-3.68,0.25 -5.3,1.97 -5.3,1.97 -2.81,3.62 -2.96,11.52 -2.96,11.52 2.64,3.19 5.96,2.78 5.96,2.78l1.22 -1.76c-1.57,-0.43 -2.7,-1.4 -3.37,-2.16 1.88,1.33 4.55,2.16 7.5,2.16 2.96,0 5.63,-0.83 7.51,-2.16 -0.67,0.76 -1.8,1.73 -3.37,2.16l1.22 1.76c0,0 3.32,0.41 5.96,-2.78 0,0 -0.15,-7.9 -2.96,-11.52zm-11.88 9.29c-1.06,0 -1.92,-0.92 -1.92,-2.04 0,-1.13 0.86,-2.05 1.92,-2.05 1.06,0 1.92,0.92 1.92,2.05 0,1.12 -0.86,2.04 -1.92,2.04zm7.05 0c-1.06,0 -1.92,-0.92 -1.92,-2.04 0,-1.13 0.86,-2.05 1.92,-2.05 1.06,0 1.92,0.92 1.92,2.05 0,1.12 -0.86,2.04 -1.92,2.04z"/>
 </g>
</svg>
