<?xml version="1.0" encoding="UTF-8"?>
<!DOCTYPE svg PUBLIC "-//W3C//DTD SVG 1.0//EN" "http://www.w3.org/TR/2001/REC-SVG-20010904/DTD/svg10.dtd">
<!-- Creator: CorelDRAW 2017 -->
<svg xmlns="http://www.w3.org/2000/svg" xml:space="preserve" width="40px" height="30px" version="1.0" style="shape-rendering:geometricPrecision; text-rendering:geometricPrecision; image-rendering:optimizeQuality; fill-rule:evenodd; clip-rule:evenodd"
viewBox="0 0 31.05 23.29"
 xmlns:xlink="http://www.w3.org/1999/xlink">
 <defs>
  <style type="text/css">
   <![CDATA[
    .fil0 {fill:none}
    .fil1 {fill:white}
   ]]>
  </style>
 </defs>
 <g id="Слой_x0020_1">
  <metadata id="CorelCorpID_0Corel-Layer"/>
  <rect class="fil0" width="31.05" height="23.29"/>
  <path class="fil1" d="M29.92 10.75c0,-1.98 -1.61,-3.58 -3.58,-3.58 -0.79,0 -1.54,0.25 -2.16,0.72 -2,-1.39 -4.61,-2.21 -7.4,-2.42l1.5 -3.53 4.38 1.02c0.14,1.35 1.27,2.42 2.66,2.42 1.48,0 2.68,-1.21 2.68,-2.69 0,-1.48 -1.2,-2.69 -2.68,-2.69 -0.94,0 -1.77,0.49 -2.25,1.22l-5.11 -1.2c-0.43,-0.09 -0.86,0.13 -1.03,0.53l-2.08 4.87c-3.01,0.1 -5.87,0.95 -8.04,2.43 -0.59,-0.44 -1.32,-0.68 -2.1,-0.68 -1.97,0 -3.58,1.6 -3.58,3.58 0,1.31 0.72,2.49 1.81,3.1 -0.01,0.16 -0.02,0.32 -0.02,0.48 0,4.94 5.63,8.96 12.54,8.96 6.92,0 12.54,-4.02 12.54,-8.96 0,-0.14 0,-0.28 -0.01,-0.41 1.17,-0.6 1.93,-1.81 1.93,-3.17zm-3.71 -8.06c0,-0.5 -0.4,-0.9 -0.89,-0.9 -0.5,0 -0.9,0.4 -0.9,0.9 0,0.49 0.4,0.89 0.9,0.89 0.49,0 0.89,-0.4 0.89,-0.89zm-13.43 10.75c0,-0.99 -0.81,-1.79 -1.8,-1.79 -0.99,0 -1.79,0.8 -1.79,1.79 0,0.99 0.8,1.79 1.79,1.79 0.99,0 1.8,-0.8 1.8,-1.79zm6.82 5.94c-1.24,0.89 -2.69,1.34 -4.14,1.34 -1.45,0 -2.9,-0.45 -4.13,-1.34 -0.4,-0.29 -0.49,-0.85 -0.2,-1.25 0.29,-0.4 0.85,-0.49 1.25,-0.2 1.84,1.33 4.32,1.34 6.17,0 0.4,-0.29 0.96,-0.2 1.25,0.2 0.29,0.4 0.2,0.96 -0.2,1.25zm2.13 -5.94c0,-0.99 -0.8,-1.79 -1.79,-1.79 -0.99,0 -1.79,0.8 -1.79,1.79 0,0.99 0.8,1.79 1.79,1.79 0.99,0 1.79,-0.8 1.79,-1.79z"/>
 </g>
</svg>
