<?xml version="1.0" encoding="UTF-8"?>
<!DOCTYPE svg PUBLIC "-//W3C//DTD SVG 1.0//EN" "http://www.w3.org/TR/2001/REC-SVG-20010904/DTD/svg10.dtd">
<!-- Creator: CorelDRAW 2017 -->
<svg xmlns="http://www.w3.org/2000/svg" xml:space="preserve" width="30px" height="30px" version="1.0" style="shape-rendering:geometricPrecision; text-rendering:geometricPrecision; image-rendering:optimizeQuality; fill-rule:evenodd; clip-rule:evenodd"
viewBox="0 0 0.79 0.79"
 xmlns:xlink="http://www.w3.org/1999/xlink">
 <defs>
  <style type="text/css">
   <![CDATA[
    .fil2 {fill:none}
    .fil1 {fill:#1A2957}
    .fil0 {fill:#213D8F}
    .fil3 {fill:white}
   ]]>
  </style>
   <clipPath id="id0">
    <path d="M0.79 0.39c0,-0.21 -0.18,-0.39 -0.4,-0.39 -0.21,0 -0.39,0.18 -0.39,0.39 0,0.22 0.18,0.4 0.39,0.4 0.22,0 0.4,-0.18 0.4,-0.4z"/>
   </clipPath>
 </defs>
 <g id="Слой_x0020_1">
  <metadata id="CorelCorpID_0Corel-Layer"/>
  <path class="fil0" d="M0.79 0.39c0,-0.21 -0.18,-0.39 -0.4,-0.39 -0.21,0 -0.39,0.18 -0.39,0.39 0,0.22 0.18,0.4 0.39,0.4 0.22,0 0.4,-0.18 0.4,-0.4z"/>
  <g style="clip-path:url(#id0)">
   <g id="_1662669714432">
    <path id="1" class="fil1" d="M0.6 0.21c-0.04,0.04 -0.08,0.07 -0.11,0.12 -0.08,0.09 -0.18,0.23 -0.32,0.21l0.24 0.25c0.21,-0.01 0.38,-0.18 0.38,-0.39l-0.19 -0.19z"/>
   </g>
  </g>
  <path class="fil2" d="M0.79 0.39c0,-0.21 -0.18,-0.39 -0.4,-0.39 -0.21,0 -0.39,0.18 -0.39,0.39 0,0.22 0.18,0.4 0.39,0.4 0.22,0 0.4,-0.18 0.4,-0.4z"/>
  <path class="fil3" d="M0.61 0.25c-0.01,0 -0.02,0.01 -0.03,0.01 0.01,-0.01 0.02,-0.02 0.03,-0.04 0,0 -0.01,-0.01 -0.01,-0.01 -0.02,0.01 -0.03,0.02 -0.05,0.02 0,0 0,0 0,0 0,0 -0.01,0 -0.01,0 -0.02,-0.01 -0.04,-0.02 -0.06,-0.02 -0.01,0 -0.02,0 -0.03,0 -0.04,0.01 -0.06,0.04 -0.07,0.07 0,0.01 0,0.02 0,0.03 0,0.01 0,0.01 0,0.01 0,0 0,0 0,0 0,0 0,0 0,0 -0.07,-0.01 -0.14,-0.04 -0.18,-0.09 0,-0.01 -0.01,-0.01 -0.01,0 -0.01,0.01 -0.01,0.03 -0.01,0.04 0,0.03 0.01,0.06 0.03,0.07 -0.01,0 -0.02,0 -0.02,0 -0.01,-0.01 -0.01,0 -0.01,0 0,0.04 0.02,0.07 0.06,0.09 -0.01,0 -0.01,0 -0.01,0 0,0 -0.01,0 -0.01,0 -0.01,0 -0.01,0 -0.01,0 0.01,0.04 0.04,0.07 0.08,0.07 -0.03,0.02 -0.07,0.03 -0.1,0.03l-0.01 0c-0.01,0 -0.01,0 -0.01,0.01 0,0 0,0 0,0.01 0.04,0.02 0.09,0.03 0.14,0.03 0.04,0 0.08,-0.01 0.11,-0.02 0.03,-0.02 0.06,-0.04 0.09,-0.07 0.02,-0.02 0.03,-0.05 0.05,-0.08 0.01,-0.03 0.01,-0.06 0.01,-0.1l0 0c0,0 0.01,-0.01 0.01,-0.01 0.02,-0.01 0.03,-0.03 0.04,-0.04 0,-0.01 0,-0.01 -0.01,-0.01l0 0z"/>
 </g>
</svg>
