<?xml version="1.0" encoding="UTF-8"?>
<!DOCTYPE svg PUBLIC "-//W3C//DTD SVG 1.0//EN" "http://www.w3.org/TR/2001/REC-SVG-20010904/DTD/svg10.dtd">
<!-- Creator: CorelDRAW 2017 -->
<svg xmlns="http://www.w3.org/2000/svg" xml:space="preserve" width="40px" height="30px" version="1.0" style="shape-rendering:geometricPrecision; text-rendering:geometricPrecision; image-rendering:optimizeQuality; fill-rule:evenodd; clip-rule:evenodd"
viewBox="0 0 2.48 1.86"
 xmlns:xlink="http://www.w3.org/1999/xlink">
 <defs>
  <style type="text/css">
   <![CDATA[
    .fil0 {fill:none}
    .fil1 {fill:white}
   ]]>
  </style>
 </defs>
 <g id="Слой_x0020_1">
  <metadata id="CorelCorpID_0Corel-Layer"/>
  <rect class="fil0" width="2.48" height="1.86"/>
  <path class="fil1" d="M1.81 0.01c0.04,0.07 0.06,0.18 0.02,0.27 0.13,0.1 0.18,0.36 0.11,0.56 0.18,0.01 0.39,-0.01 0.54,0.05 -0.13,-0.02 -0.31,-0.05 -0.47,-0.04 -0.03,0 -0.09,0 -0.08,0.05 0.19,0.02 0.39,0.02 0.55,0.08 -0.15,-0.03 -0.35,-0.06 -0.55,-0.06 -0.08,0.15 -0.25,0.22 -0.47,0.24 0.03,0.05 0.08,0.07 0.09,0.15 0.02,0.12 -0.03,0.3 0.02,0.38 0.01,0.04 0.05,0.04 0.07,0.08 -0.06,0.06 -0.19,-0.01 -0.21,-0.08 -0.03,-0.1 0.03,-0.29 -0.04,-0.36 0.01,0.13 -0.03,0.3 0.01,0.41 0.02,0.04 0.06,0.06 0.05,0.1 -0.26,0.03 -0.15,-0.32 -0.2,-0.52 -0.03,0 -0.01,0.06 -0.01,0.08 0,0.2 0.04,0.47 -0.19,0.45 -0.01,-0.05 0.03,-0.06 0.05,-0.09 0.04,-0.11 -0.01,-0.28 0.01,-0.41 -0.08,0.06 0.01,0.27 -0.05,0.38 -0.03,0.06 -0.13,0.09 -0.2,0.06 0.01,-0.04 0.06,-0.03 0.08,-0.08 0.03,-0.06 0,-0.14 0.01,-0.23 -0.15,0.02 -0.28,0 -0.34,-0.1 -0.02,-0.05 -0.03,-0.09 -0.06,-0.13 -0.04,-0.04 -0.08,-0.04 -0.1,-0.09 0.19,-0.05 0.2,0.19 0.37,0.2 0.06,0 0.09,-0.02 0.13,-0.03 0.02,-0.06 0.05,-0.1 0.09,-0.13 -0.22,-0.03 -0.39,-0.09 -0.48,-0.26 -0.2,0.01 -0.38,0.04 -0.55,0.08 0.15,-0.06 0.34,-0.08 0.54,-0.09 -0.01,-0.07 -0.12,-0.04 -0.18,-0.04 -0.12,0.01 -0.28,0.02 -0.37,0.03 0.14,-0.04 0.33,-0.04 0.52,-0.04 -0.05,-0.17 -0.03,-0.44 0.09,-0.54 -0.03,-0.08 -0.02,-0.23 0.02,-0.29 0.14,0.01 0.22,0.06 0.31,0.12 0.11,-0.03 0.22,-0.05 0.38,-0.04 0.06,0 0.13,0.03 0.17,0.03 0.05,0 0.1,-0.06 0.15,-0.08 0.05,-0.06 0.11,-0.07 0.17,-0.07z"/>
 </g>
</svg>
