<?xml version="1.0" encoding="UTF-8"?>
<!DOCTYPE svg PUBLIC "-//W3C//DTD SVG 1.0//EN" "http://www.w3.org/TR/2001/REC-SVG-20010904/DTD/svg10.dtd">
<!-- Creator: CorelDRAW 2017 -->
<svg xmlns="http://www.w3.org/2000/svg" xml:space="preserve" width="59px" height="59px" version="1.0" style="shape-rendering:geometricPrecision; text-rendering:geometricPrecision; image-rendering:optimizeQuality; fill-rule:evenodd; clip-rule:evenodd"
viewBox="0 0 70.3 70.3"
 xmlns:xlink="http://www.w3.org/1999/xlink">
 <defs>
  <style type="text/css">
   <![CDATA[
    .fil0 {fill:none}
    .fil1 {fill:#FF7E00;fill-rule:nonzero}
   ]]>
  </style>
 </defs>
 <g id="Слой_x0020_1">
  <metadata id="CorelCorpID_0Corel-Layer"/>
  <g id="_1662668630464">
   <rect class="fil0" width="70.3" height="70.3"/>
   <path class="fil1" d="M35.35 33.3l1.44 0c0.72,0 1.39,0.19 1.97,0.53 0.38,0.16 0.72,0.39 1,0.67 0.57,0.57 0.92,1.35 0.92,2.21l0 0.1c0.01,0.13 0.02,0.26 0.02,0.39l0 3.79 23.35 0c1.3,0 2.47,-0.53 3.32,-1.37 0.84,-0.85 1.37,-2.03 1.37,-3.32l0 -8.42 0 -13.37 -67.18 0 0 13.37 0 8.42c0,1.29 0.53,2.47 1.37,3.31 0.85,0.85 2.02,1.38 3.32,1.38l25.19 0 0 -4.28c0,-0.86 0.35,-1.64 0.92,-2.21 0.31,-0.31 0.68,-0.55 1.1,-0.71 0.56,-0.31 1.21,-0.49 1.89,-0.49l0 0.29 0 0 0 -0.29zm-21.29 9.74l0 4.57c0,0.43 0.17,0.82 0.45,1.1 0.29,0.28 0.68,0.46 1.11,0.46l3 0c0.44,0 0.83,-0.18 1.11,-0.46 0.28,-0.28 0.46,-0.67 0.46,-1.1l0 -4.57 -6.13 0zm-1.56 4.57l0 -5.06 -6.25 0c-1.72,0 -3.29,-0.7 -4.42,-1.83 -0.09,-0.09 -0.18,-0.19 -0.27,-0.29l0 22.76 67.18 0 0 -22.76c-0.09,0.1 -0.18,0.2 -0.27,0.29 -1.13,1.13 -2.7,1.83 -4.42,1.83l-6.37 0 0 5.06c0,0.86 -0.35,1.64 -0.92,2.2 -0.56,0.57 -1.34,0.92 -2.21,0.92l-3 0c-0.86,0 -1.64,-0.35 -2.2,-0.92 -0.57,-0.56 -0.92,-1.35 -0.92,-2.2l0 -5.06 -7.73 0 0 3.49c0,1.08 -0.44,2.06 -1.15,2.76 -0.7,0.71 -1.68,1.15 -2.76,1.15l-1.44 0c-1.07,0 -2.05,-0.44 -2.75,-1.15 -0.71,-0.7 -1.15,-1.68 -1.15,-2.76l0 -3.49 -9.7 0 0 5.06c0,0.86 -0.35,1.64 -0.92,2.2 -0.56,0.57 -1.34,0.92 -2.21,0.92l-3 0c-0.86,0 -1.64,-0.35 -2.2,-0.92 -0.57,-0.56 -0.92,-1.35 -0.92,-2.2zm37.49 -4.57l0 4.57c0,0.43 0.17,0.82 0.45,1.1 0.29,0.28 0.68,0.46 1.11,0.46l3 0c0.44,0 0.83,-0.18 1.11,-0.46 0.28,-0.28 0.46,-0.67 0.46,-1.1l0 -4.57 -6.13 0zm-15.87 -7.82c-0.16,0.09 -0.3,0.2 -0.42,0.33 -0.43,0.42 -0.69,1.01 -0.69,1.65l0 8.84c0,0.65 0.27,1.24 0.69,1.66 0.42,0.43 1.01,0.69 1.65,0.69l1.44 0c0.65,0 1.24,-0.27 1.66,-0.69 0.43,-0.42 0.69,-1.01 0.69,-1.66l0 -3.49 -0.02 0 0 -5.66c-0.07,-0.52 -0.31,-0.99 -0.67,-1.34 -0.11,-0.12 -0.25,-0.23 -0.39,-0.32 -0.16,-0.05 -0.33,-0.08 -0.51,-0.08l-2.98 0c-0.16,0 -0.31,0.02 -0.45,0.07zm36.18 -7.34l0 8.42 0 27.02c0,0.42 -0.2,0.79 -0.51,1.06 -0.28,0.23 -0.65,0.37 -1.05,0.37l-67.18 0c-0.4,0 -0.77,-0.14 -1.04,-0.37 -0.32,-0.27 -0.52,-0.64 -0.52,-1.06l0 -27.02 0 -8.42 0 -13.37c0,-0.43 0.18,-0.82 0.46,-1.1 0.28,-0.29 0.67,-0.46 1.1,-0.46l20.64 0 0 -4.28c0,-0.86 0.35,-1.64 0.92,-2.21 0.56,-0.56 1.34,-0.91 2.2,-0.91l21.5 0c0.86,0 1.65,0.35 2.21,0.91 0.57,0.57 0.92,1.35 0.92,2.21l0 4.28 18.79 0c0.43,0 0.82,0.17 1.1,0.46 0.28,0.28 0.46,0.67 0.46,1.1l0 13.37zm-46.54 -19.21l0 4.28 24.63 0 0 -4.28c0,-0.43 -0.18,-0.82 -0.46,-1.1 -0.28,-0.28 -0.67,-0.46 -1.11,-0.46l-21.5 0c-0.43,0 -0.82,0.18 -1.1,0.46 -0.28,0.28 -0.46,0.67 -0.46,1.1z"/>
  </g>
 </g>
</svg>
