<?xml version="1.0" encoding="UTF-8"?>
<!DOCTYPE svg PUBLIC "-//W3C//DTD SVG 1.0//EN" "http://www.w3.org/TR/2001/REC-SVG-20010904/DTD/svg10.dtd">
<!-- Creator: CorelDRAW 2017 -->
<svg xmlns="http://www.w3.org/2000/svg" xml:space="preserve" width="40px" height="30px" version="1.0" style="shape-rendering:geometricPrecision; text-rendering:geometricPrecision; image-rendering:optimizeQuality; fill-rule:evenodd; clip-rule:evenodd"
viewBox="0 0 3.04 2.28"
 xmlns:xlink="http://www.w3.org/1999/xlink">
 <defs>
  <style type="text/css">
   <![CDATA[
    .fil0 {fill:none}
    .fil1 {fill:white}
   ]]>
  </style>
 </defs>
 <g id="Слой_x0020_1">
  <metadata id="CorelCorpID_0Corel-Layer"/>
  <rect class="fil0" width="3.04" height="2.28"/>
  <path class="fil1" d="M2.62 0.41c-0.05,0.02 -0.1,0.04 -0.15,0.05 0.06,-0.06 0.1,-0.13 0.13,-0.21 0,-0.02 -0.02,-0.04 -0.04,-0.03 -0.08,0.05 -0.16,0.08 -0.24,0.1 -0.01,0 -0.01,0.01 -0.02,0.01 -0.01,0 -0.03,-0.01 -0.04,-0.02 -0.09,-0.08 -0.2,-0.12 -0.32,-0.12 -0.06,0 -0.11,0 -0.16,0.02 -0.16,0.05 -0.28,0.18 -0.32,0.35 -0.02,0.06 -0.02,0.12 -0.01,0.18 0,0 0,0.01 -0.01,0.01 0,0.01 -0.01,0.01 -0.01,0.01 0,0 0,0 0,0 -0.35,-0.04 -0.67,-0.2 -0.89,-0.48 -0.01,-0.01 -0.03,-0.01 -0.04,0 -0.04,0.08 -0.07,0.17 -0.07,0.25 0,0.14 0.06,0.26 0.15,0.36 -0.04,-0.01 -0.08,-0.03 -0.11,-0.05 -0.02,-0.01 -0.04,0 -0.04,0.02 0,0.2 0.11,0.38 0.29,0.46 -0.01,0 -0.01,0 -0.01,0 -0.03,0 -0.06,0 -0.09,-0.01 -0.02,0 -0.03,0.02 -0.03,0.04 0.06,0.17 0.21,0.3 0.39,0.33 -0.15,0.11 -0.32,0.16 -0.5,0.16l-0.06 0c-0.02,0 -0.03,0.01 -0.04,0.03 0,0.01 0.01,0.03 0.02,0.04 0.21,0.12 0.44,0.19 0.68,0.19 0.21,0 0.4,-0.05 0.58,-0.13 0.16,-0.07 0.3,-0.18 0.42,-0.32 0.11,-0.13 0.2,-0.27 0.26,-0.44 0.06,-0.15 0.09,-0.32 0.09,-0.48l0 0c0,-0.03 0.01,-0.05 0.03,-0.07 0.08,-0.06 0.14,-0.13 0.2,-0.21 0.01,-0.03 -0.01,-0.05 -0.04,-0.04l0 0z"/>
 </g>
</svg>
