<?xml version="1.0" encoding="UTF-8"?>
<!DOCTYPE svg PUBLIC "-//W3C//DTD SVG 1.0//EN" "http://www.w3.org/TR/2001/REC-SVG-20010904/DTD/svg10.dtd">
<!-- Creator: CorelDRAW 2017 -->
<svg xmlns="http://www.w3.org/2000/svg" xml:space="preserve" width="59px" height="59px" version="1.0" style="shape-rendering:geometricPrecision; text-rendering:geometricPrecision; image-rendering:optimizeQuality; fill-rule:evenodd; clip-rule:evenodd"
viewBox="0 0 5.64 5.64"
 xmlns:xlink="http://www.w3.org/1999/xlink">
 <defs>
  <style type="text/css">
   <![CDATA[
    .fil0 {fill:none}
    .fil1 {fill:#FF7E00;fill-rule:nonzero}
   ]]>
  </style>
 </defs>
 <g id="Слой_x0020_1">
  <metadata id="CorelCorpID_0Corel-Layer"/>
  <g id="_1662446468560">
   <rect class="fil0" width="5.64" height="5.64"/>
   <path class="fil1" d="M3.91 1.44l0 -0.39c0,-0.12 -0.05,-0.23 -0.13,-0.31 -0.07,-0.08 -0.18,-0.13 -0.31,-0.13l-0.14 0c-0.04,0 -0.06,-0.03 -0.06,-0.06l0 -0.41 -0.83 0.16c-0.19,0.04 -0.35,0.15 -0.47,0.3 -0.07,0.08 -0.13,0.18 -0.16,0.28 0.03,-0.01 0.06,-0.01 0.08,0.02 0.05,0.07 0.12,0.13 0.21,0.17 0.07,0.04 0.16,0.06 0.26,0.06l0 0 0 0 0.97 0c0.19,0 0.37,0.08 0.5,0.21l0 0c0.03,0.03 0.06,0.06 0.08,0.1zm-2.12 -0.47c-0.01,0.05 -0.02,0.1 -0.02,0.14l0 0.25 0 0 0 0.16 0 0 0 0.48c0,0.3 0.12,0.57 0.32,0.76 0.19,0.19 0.46,0.31 0.75,0.31 0.3,0 0.57,-0.12 0.76,-0.31 0.19,-0.19 0.31,-0.46 0.31,-0.76l0 -0.16 0 0c0,-0.16 -0.06,-0.31 -0.17,-0.41l0 0c-0.11,-0.11 -0.25,-0.17 -0.41,-0.17l-0.97 0 0 0 0 0c-0.12,0 -0.22,-0.03 -0.32,-0.08 -0.1,-0.05 -0.19,-0.12 -0.25,-0.21l0 0zm2.25 0.55l0 0 0 0 0 0.32 0 0 0 0.16c0,0.33 -0.14,0.63 -0.35,0.85 -0.22,0.22 -0.52,0.35 -0.85,0.35 -0.33,0 -0.63,-0.13 -0.84,-0.35l0 0c-0.22,-0.22 -0.35,-0.52 -0.35,-0.85l0 -0.48 0 0 0 -0.16 0 0 0 -0.25c0,-0.21 0.08,-0.42 0.22,-0.59 0.14,-0.17 0.33,-0.3 0.54,-0.34l0.9 -0.18c0.01,0 0.01,0 0.02,0 0.03,0 0.06,0.03 0.06,0.06l0 0.43 0.08 0c0.16,0 0.3,0.06 0.4,0.16 0.1,0.1 0.17,0.24 0.17,0.4l0 0.47zm-3.86 4.05c0,0.04 -0.03,0.07 -0.06,0.07 -0.04,0 -0.07,-0.03 -0.07,-0.07l0 -0.33c0,-0.52 0.18,-0.99 0.47,-1.36 0.29,-0.38 0.71,-0.65 1.2,-0.75 0.02,-0.01 0.05,0 0.06,0.02 0.11,0.12 0.27,0.25 0.48,0.34 0.17,0.07 0.38,0.11 0.62,0.11 0.28,0 0.5,-0.04 0.68,-0.13 0.18,-0.08 0.31,-0.19 0.41,-0.32 0.02,-0.02 0.04,-0.03 0.07,-0.02 0.25,0.05 0.48,0.15 0.68,0.29 0.21,0.15 0.39,0.33 0.55,0.55 0.17,0.24 0.28,0.47 0.31,0.7 0.01,0.04 -0.02,0.07 -0.05,0.07 -0.03,0.01 -0.07,-0.01 -0.07,-0.05 -0.03,-0.21 -0.13,-0.42 -0.29,-0.65 -0.15,-0.2 -0.32,-0.38 -0.53,-0.52 -0.17,-0.12 -0.37,-0.21 -0.59,-0.26 -0.11,0.13 -0.25,0.24 -0.44,0.33 -0.19,0.09 -0.43,0.14 -0.73,0.14 -0.26,0 -0.48,-0.05 -0.67,-0.13 -0.22,-0.09 -0.38,-0.22 -0.5,-0.34 -0.44,0.1 -0.82,0.35 -1.09,0.69 -0.28,0.35 -0.44,0.8 -0.44,1.29l0 0.33z"/>
  </g>
 </g>
</svg>
