<?xml version="1.0" encoding="UTF-8"?>
<!DOCTYPE svg PUBLIC "-//W3C//DTD SVG 1.0//EN" "http://www.w3.org/TR/2001/REC-SVG-20010904/DTD/svg10.dtd">
<!-- Creator: CorelDRAW 2017 -->
<svg xmlns="http://www.w3.org/2000/svg" xml:space="preserve" width="40px" height="30px" version="1.0" style="shape-rendering:geometricPrecision; text-rendering:geometricPrecision; image-rendering:optimizeQuality; fill-rule:evenodd; clip-rule:evenodd"
viewBox="0 0 3.93 2.94"
 xmlns:xlink="http://www.w3.org/1999/xlink">
 <defs>
  <style type="text/css">
   <![CDATA[
    .fil0 {fill:none}
    .fil1 {fill:white}
   ]]>
  </style>
 </defs>
 <g id="Слой_x0020_1">
  <metadata id="CorelCorpID_0Corel-Layer"/>
  <rect class="fil0" width="3.93" height="2.94"/>
  <g id="_1483013150288">
   <path id="Facebook_28alt29" class="fil1" d="M3.44 0.49c0,-0.26 -0.24,-0.49 -0.5,-0.49l-1.96 0c-0.26,0 -0.49,0.23 -0.49,0.49l0 1.96c0,0.26 0.23,0.49 0.49,0.49l0.98 0 0 -1.11 -0.36 0 0 -0.49 0.36 0 0 -0.19c0,-0.33 0.25,-0.63 0.56,-0.63l0.39 0 0 0.49 -0.39 0c-0.05,0 -0.1,0.06 -0.1,0.14l0 0.19 0.49 0 0 0.49 -0.49 0 0 1.11 0.52 0c0.26,0 0.5,-0.23 0.5,-0.49l0 -1.96z"/>
  </g>
 </g>
</svg>
