<?xml version="1.0" encoding="UTF-8"?>
<!DOCTYPE svg PUBLIC "-//W3C//DTD SVG 1.0//EN" "http://www.w3.org/TR/2001/REC-SVG-20010904/DTD/svg10.dtd">
<!-- Creator: CorelDRAW 2017 -->
<svg xmlns="http://www.w3.org/2000/svg" xml:space="preserve" width="40px" height="30px" version="1.0" style="shape-rendering:geometricPrecision; text-rendering:geometricPrecision; image-rendering:optimizeQuality; fill-rule:evenodd; clip-rule:evenodd"
viewBox="0 0 9.4 7.05"
 xmlns:xlink="http://www.w3.org/1999/xlink">
 <defs>
  <style type="text/css">
   <![CDATA[
    .fil0 {fill:none}
    .fil1 {fill:white}
   ]]>
  </style>
 </defs>
 <g id="Слой_x0020_1">
  <metadata id="CorelCorpID_0Corel-Layer"/>
  <rect class="fil0" width="9.4" height="7.05"/>
  <g id="XMLID_496_">
   <path id="XMLID_497_" class="fil1" d="M1.3 3.4l1.62 0.61 0.63 2.02c0.04,0.13 0.2,0.18 0.31,0.09l0.9 -0.74c0.1,-0.08 0.23,-0.08 0.33,-0.01l1.64 1.19c0.11,0.08 0.27,0.02 0.3,-0.12l1.19 -5.75c0.03,-0.15 -0.11,-0.28 -0.25,-0.22l-6.67 2.57c-0.17,0.06 -0.17,0.3 0,0.36zm2.15 0.28l3.18 -1.95c0.05,-0.04 0.11,0.04 0.06,0.09l-2.62 2.43c-0.09,0.09 -0.15,0.2 -0.16,0.33l-0.09 0.66c-0.02,0.09 -0.14,0.09 -0.16,0.01l-0.35 -1.21c-0.04,-0.13 0.02,-0.28 0.14,-0.36z"/>
  </g>
 </g>
</svg>
