<?xml version="1.0" encoding="UTF-8"?>
<!DOCTYPE svg PUBLIC "-//W3C//DTD SVG 1.0//EN" "http://www.w3.org/TR/2001/REC-SVG-20010904/DTD/svg10.dtd">
<!-- Creator: CorelDRAW 2017 -->
<svg xmlns="http://www.w3.org/2000/svg" xml:space="preserve" width="59px" height="59px" version="1.0" style="shape-rendering:geometricPrecision; text-rendering:geometricPrecision; image-rendering:optimizeQuality; fill-rule:evenodd; clip-rule:evenodd"
viewBox="0 0 6.83 6.83"
 xmlns:xlink="http://www.w3.org/1999/xlink">
 <defs>
  <style type="text/css">
   <![CDATA[
    .fil0 {fill:none}
    .fil2 {fill:#FF7A0B;fill-rule:nonzero}
    .fil1 {fill:#FF7E00;fill-rule:nonzero}
   ]]>
  </style>
 </defs>
 <g id="Слой_x0020_1">
  <metadata id="CorelCorpID_0Corel-Layer"/>
  <g id="_1662446459184">
   <rect class="fil0" width="6.83" height="6.83"/>
   <g>
    <path class="fil1" d="M0.22 5.35l6.39 0 -0.47 -0.68c-0.02,-0.02 -0.05,-0.05 -0.08,-0.06 -0.03,-0.02 -0.07,-0.03 -0.1,-0.03l-5.09 0c-0.03,0 -0.07,0.01 -0.1,0.03 -0.03,0.01 -0.06,0.04 -0.08,0.06l-0.47 0.68zm0.4 -0.9l0 -3.36c0,-0.11 0.04,-0.21 0.11,-0.28 0.07,-0.07 0.17,-0.11 0.28,-0.11l4.81 0c0.11,0 0.2,0.04 0.27,0.11 0.08,0.07 0.12,0.17 0.12,0.28l0 3.41 -0.03 0c0.04,0.03 0.07,0.05 0.09,0.09l0.54 0.79c0.01,0.02 0.02,0.03 0.02,0.05l0 0.31c0,0.11 -0.04,0.21 -0.11,0.28 -0.08,0.07 -0.17,0.11 -0.28,0.11l-6.05 0c-0.11,0 -0.21,-0.04 -0.28,-0.11l0 -0.01c-0.07,-0.07 -0.11,-0.16 -0.11,-0.27l0 -0.31 0 0 0 0 0 0 0 0 0 0 0 0 0 0 0 0 0 0 0 0 0 0 0 0 0 -0.01 0 0 0 0 0 0 0 0 0 0 0 0 0 0 0 0 0 0 0 0 0 0 0 0 0 0 0 0 0 0 0 0 0 0 0 0 0 -0.01 0 0 0 0 0 0 0 0 0 0 0 0 0 0 0 0 0 0 0 0 0 0 0 0 0 0 0 0 0 0 0 0 0.01 -0.01 0 0 0 0 0 0 0 0 0 0 0 0 0 0 0 0 0 0 0 0 0 0 0 0 0 0 0 0 0 0 0 0 0 0 0 0 0 -0.01 0 0 0 0 0 0 0 0 0 0 0 0 0 0 0 0 0 0 0 0 0 0 0 0 0 0 0 0 0 0 0 0 0 0 0.01 0 0 0 0 0 0 0 0 -0.01 0.54 -0.79c0.03,-0.05 0.08,-0.09 0.14,-0.12 0.01,-0.01 0.02,-0.01 0.03,-0.02l-0.11 0zm5.43 -0.01l0 -3.35c0,-0.07 -0.02,-0.13 -0.06,-0.17 -0.05,-0.04 -0.1,-0.07 -0.17,-0.07l-4.81 0c-0.07,0 -0.12,0.03 -0.17,0.07 -0.04,0.04 -0.06,0.1 -0.06,0.17l0 3.35c0.03,-0.01 0.06,-0.02 0.09,-0.02l5.09 0c0.03,0 0.06,0.01 0.09,0.02zm0.62 1.07l-6.51 0 0 0.23c0,0.07 0.02,0.12 0.06,0.16l0 0.01c0.05,0.04 0.1,0.07 0.17,0.07l6.05 0c0.07,0 0.12,-0.03 0.17,-0.07 0.04,-0.04 0.06,-0.1 0.06,-0.17l0 -0.23z"/>
    <path class="fil2" d="M1.57 2.72c0,-0.01 0.01,-0.03 0.01,-0.04 0.01,-0.01 0.02,-0.03 0.03,-0.04 0.17,-0.15 0.49,-0.35 0.69,-0.49 0,0 0.01,0 0.02,-0.01 0,0 0.01,0 0.02,0 0.01,0 0.02,0 0.03,0.01 0.01,0 0.02,0.01 0.03,0.01 0.01,0.01 0.01,0.02 0.02,0.03 0,0.01 0.01,0.02 0.01,0.03 0,0.02 -0.01,0.03 -0.01,0.05 -0.01,0.01 -0.02,0.02 -0.03,0.03l-0.6 0.42 0.6 0.43c0.01,0.01 0.02,0.02 0.03,0.03 0,0.01 0.01,0.02 0.01,0.04 0,0.02 -0.01,0.04 -0.03,0.06 -0.01,0.01 -0.02,0.01 -0.03,0.02 -0.01,0 -0.02,0 -0.03,0 -0.01,0 -0.02,0 -0.02,0l0 0c-0.01,0 -0.02,-0.01 -0.02,-0.01l-0.68 -0.49c-0.02,-0.01 -0.03,-0.02 -0.04,-0.03 0,-0.02 -0.01,-0.03 -0.01,-0.05z"/>
    <path class="fil2" d="M2.83 3.84c0,-0.01 0,-0.02 0,-0.03 0.01,0 0.01,-0.01 0.01,-0.02l1 -2.23c0.01,-0.01 0.02,-0.03 0.03,-0.03 0.01,-0.01 0.03,-0.02 0.04,-0.02 0.01,0 0.02,0.01 0.04,0.01 0,0.01 0.01,0.01 0.02,0.02 0.01,0.01 0.02,0.02 0.02,0.03 0,0.01 0.01,0.03 0.01,0.04 0,0.01 0,0.01 -0.01,0.02 0,0.01 0,0.02 0,0.03l-1 2.2c-0.01,0.02 -0.02,0.03 -0.03,0.04 -0.01,0.01 -0.03,0.02 -0.05,0.02 -0.05,0 -0.08,-0.03 -0.08,-0.08z"/>
    <path class="fil2" d="M5.17 2.72c0,-0.01 0,-0.03 -0.01,-0.04 0,-0.01 -0.01,-0.03 -0.03,-0.04 -0.17,-0.15 -0.49,-0.35 -0.68,-0.49 -0.01,0 -0.02,0 -0.02,-0.01 -0.01,0 -0.02,0 -0.03,0 -0.01,0 -0.02,0 -0.03,0.01 -0.01,0 -0.02,0.01 -0.02,0.01 -0.01,0.01 -0.02,0.02 -0.02,0.03 -0.01,0.01 -0.01,0.02 -0.01,0.03 0,0.02 0,0.03 0.01,0.05 0.01,0.01 0.01,0.02 0.03,0.03l0.59 0.42 -0.59 0.43c-0.01,0.01 -0.02,0.02 -0.03,0.03 -0.01,0.01 -0.01,0.02 -0.01,0.04 0,0.02 0.01,0.04 0.03,0.06 0,0.01 0.01,0.01 0.02,0.02 0.01,0 0.02,0 0.03,0 0.01,0 0.02,0 0.03,0l0 0c0,0 0.01,-0.01 0.02,-0.01l0.68 -0.49c0.01,-0.01 0.02,-0.02 0.03,-0.03 0.01,-0.02 0.01,-0.03 0.01,-0.05z"/>
   </g>
  </g>
 </g>
</svg>
