<?xml version="1.0" encoding="UTF-8"?>
<!DOCTYPE svg PUBLIC "-//W3C//DTD SVG 1.0//EN" "http://www.w3.org/TR/2001/REC-SVG-20010904/DTD/svg10.dtd">
<!-- Creator: CorelDRAW 2017 -->
<svg xmlns="http://www.w3.org/2000/svg" xml:space="preserve" width="40px" height="30px" version="1.0" style="shape-rendering:geometricPrecision; text-rendering:geometricPrecision; image-rendering:optimizeQuality; fill-rule:evenodd; clip-rule:evenodd"
viewBox="0 0 5.54 4.15"
 xmlns:xlink="http://www.w3.org/1999/xlink">
 <defs>
  <style type="text/css">
   <![CDATA[
    .fil0 {fill:none}
    .fil1 {fill:white}
   ]]>
  </style>
 </defs>
 <g id="Слой_x0020_1">
  <metadata id="CorelCorpID_0Corel-Layer"/>
  <rect class="fil0" width="5.54" height="4.15"/>
  <path class="fil1" d="M4.52 2.45c0.16,0.16 0.33,0.3 0.47,0.48 0.07,0.07 0.13,0.15 0.17,0.24 0.07,0.13 0.01,0.27 -0.11,0.28l-0.7 0c-0.18,0.01 -0.33,-0.06 -0.45,-0.19 -0.1,-0.1 -0.19,-0.2 -0.28,-0.31 -0.04,-0.04 -0.08,-0.08 -0.13,-0.11 -0.1,-0.06 -0.18,-0.04 -0.24,0.06 -0.05,0.1 -0.06,0.21 -0.07,0.33 -0.01,0.16 -0.06,0.21 -0.22,0.22 -0.36,0.01 -0.7,-0.04 -1.01,-0.22 -0.28,-0.16 -0.5,-0.38 -0.68,-0.64 -0.37,-0.49 -0.65,-1.03 -0.9,-1.59 -0.06,-0.13 -0.01,-0.2 0.12,-0.2 0.23,0 0.47,0 0.7,0 0.09,0 0.15,0.06 0.19,0.14 0.12,0.31 0.27,0.6 0.47,0.87 0.05,0.07 0.1,0.15 0.17,0.2 0.08,0.05 0.15,0.03 0.19,-0.06 0.02,-0.05 0.03,-0.12 0.04,-0.18 0.01,-0.21 0.02,-0.42 -0.01,-0.64 -0.02,-0.13 -0.1,-0.21 -0.23,-0.24 -0.07,-0.01 -0.06,-0.04 -0.03,-0.08 0.06,-0.06 0.11,-0.1 0.22,-0.1l0.8 0c0.12,0.02 0.15,0.08 0.17,0.2l0 0.89c0,0.05 0.02,0.19 0.11,0.23 0.07,0.02 0.12,-0.04 0.16,-0.08 0.19,-0.2 0.33,-0.44 0.45,-0.69 0.05,-0.11 0.1,-0.22 0.15,-0.34 0.03,-0.08 0.08,-0.12 0.18,-0.12l0.76 0c0.03,0 0.05,0 0.07,0 0.13,0.03 0.17,0.08 0.13,0.21 -0.07,0.2 -0.19,0.36 -0.31,0.53 -0.13,0.17 -0.26,0.35 -0.39,0.52 -0.12,0.17 -0.11,0.25 0.04,0.39l0 0z"/>
 </g>
</svg>
