<?xml version="1.0" encoding="UTF-8"?>
<!DOCTYPE svg PUBLIC "-//W3C//DTD SVG 1.0//EN" "http://www.w3.org/TR/2001/REC-SVG-20010904/DTD/svg10.dtd">
<!-- Creator: CorelDRAW 2017 -->
<svg xmlns="http://www.w3.org/2000/svg" xml:space="preserve" width="525px" height="87px" version="1.0" style="shape-rendering:geometricPrecision; text-rendering:geometricPrecision; image-rendering:optimizeQuality; fill-rule:evenodd; clip-rule:evenodd"
viewBox="0 0 488.58 81.31"
 xmlns:xlink="http://www.w3.org/1999/xlink">
 <defs>
  <style type="text/css">
   <![CDATA[
    .fil0 {fill:#F77416}
    .fil1 {fill:white}
    .fil2 {fill:white;fill-rule:nonzero}
   ]]>
  </style>
 </defs>
 <g id="Слой_x0020_1">
  <metadata id="CorelCorpID_0Corel-Layer"/>
  <path class="fil0" d="M370.59 38.79c3.11,0 5.04,1.95 5.89,4.47 0.47,1.38 0.29,2.11 0.5,2.99l-12.68 0c0,-1.81 0.49,-3.99 1.62,-5.25 1.2,-1.35 2.7,-2.21 4.67,-2.21zm26.33 -1.55l0 -3.49c0.01,-0.43 0.12,-0.86 -0.29,-0.86l-7.45 0c-0.23,0 -0.29,0.06 -0.29,0.29l0 31.96 8.61 0c0,-2.11 -0.14,-14.46 0.17,-16.69 0.05,-0.38 0,-0.74 0.04,-1.12 0.02,-0.24 0.09,-0.7 0.13,-1.03 0.46,-3.13 1.57,-6.44 5.27,-6.44 1.62,0 2.76,0.76 4.07,1.45l1.3 -3.73c0.16,-0.43 1.28,-3.44 1.31,-3.82 -0.3,-0.07 -0.36,-0.13 -0.6,-0.28 -1.99,-1.22 -5.3,-1.73 -7.76,-0.73 -0.79,0.31 -1.26,0.65 -1.83,1.17 -1.48,1.34 -1.96,2.5 -2.68,3.32zm-105.8 27.9l9.1 0 0 -44.46 -9.1 0 0 44.46zm49.56 -38.36l0 6.11 -3.87 0 0 6.68c0,0.22 0.07,0.29 0.29,0.29l3.58 0 0 14.04c0,2.87 -0.05,6.46 1.29,8.88 2.23,4.01 10.49,3.58 13.91,1.77 -0.2,-0.84 -0.44,-3.65 -0.59,-4.93 -0.05,-0.43 -0.18,-1.22 -0.19,-1.65 -0.84,0.07 -4.82,2.06 -5.6,-0.69 -0.36,-1.3 -0.2,-15.36 -0.2,-17.42l5.51 0c0.23,0 0.29,-0.07 0.29,-0.29l0 -6.68 -5.8 0 0 -11.24c-0.42,0.1 -3.96,2.22 -4.4,2.48l-3.8 2.2c-0.21,0.11 -0.42,0.17 -0.42,0.45zm132.8 0l0 6.11 -3.87 0 0 6.97 3.87 0 0 15.69c0,3.71 0.21,7.11 2.87,8.85 0.29,0.19 0.44,0.25 0.74,0.41l0.8 0.37c0.66,0.24 1.13,0.36 1.81,0.51 2.29,0.51 5.22,0.06 7.36,-0.53 0.59,-0.17 1,-0.39 1.52,-0.51 0,-0.63 -0.05,-1.09 -0.13,-1.7l-0.37 -3.32c-0.06,-0.51 -0.17,-1.06 -0.17,-1.66l-1.66 0.47c-1.29,0.41 -3.24,0.58 -3.87,-0.86 -0.23,-0.52 -0.28,-2.08 -0.28,-2.91l0 -14.81 5.51 0c0.23,0 0.3,-0.07 0.3,-0.29l0 -6.68 -5.81 0 0 -11.24c-0.44,0.04 -7.14,4.06 -8.2,4.68 -0.21,0.11 -0.42,0.17 -0.42,0.45zm-33.58 14.82c0,1.79 0,2.84 0.8,4.42 1.55,3.08 4.06,4.15 7.41,5.28 0.99,0.33 2.19,0.68 3.23,0.94l6.82 1.69c0.86,0.29 1.52,0.56 1.83,1.36 0.37,0.95 0.22,1.86 -0.33,2.6 -0.72,0.96 -2.05,1.39 -3.25,1.59 -3.52,0.58 -7.46,0.06 -8.78,-3.63 -0.11,-0.3 -0.25,-0.91 -0.38,-1.18 -0.59,0.14 -1.48,0.29 -2.06,0.37l-6.46 0.99c0,0.69 0.54,1.82 0.77,2.33l1.2 2c0.49,0.66 0.87,1.08 1.44,1.65 5.18,5.12 18.44,5.27 23.43,0.24 1.44,-1.45 2.31,-2.55 2.9,-4.65 0.58,-2.03 0.38,-4.76 -0.47,-6.45 -1.53,-3.04 -4.75,-4.34 -7.86,-5.3l-3.78 -0.96c-1.84,-0.4 -4.94,-1.23 -6.68,-1.85 -2.94,-1.04 -3.01,-4.63 3.86,-4.63 2.12,0 4.18,0.5 5.25,2.1 0.29,0.44 0.74,1.11 0.76,1.77l8.13 -1.45c-0.09,-1.08 -1.1,-2.95 -1.71,-3.82 -1.66,-2.39 -3.89,-3.6 -6.77,-4.26 -4.38,-1 -11.53,-0.82 -15.22,1.7 -1.95,1.33 -4.08,3.92 -4.08,7.15zm-126.51 -4.07l0 -4.64 -7.94 0 0 32.25 8.61 0c0,-3.66 -0.21,-17.47 0.27,-20.37 0.25,-1.55 0.62,-2.7 1.58,-3.74 0.05,-0.06 0.07,-0.08 0.14,-0.16 0.4,-0.43 1.01,-0.87 1.53,-1.18 2.72,-1.6 6.9,-1.19 8.06,2.24 0.57,1.65 0.62,5.08 0.62,7.32l0 15.89 8.61 0 0 -18.79c0,-5.71 -0.3,-10.79 -5.49,-13.01 -3.75,-1.61 -8.33,-1.59 -11.81,0.53 -0.43,0.26 -0.8,0.49 -1.18,0.76 -1.47,1.03 -2.86,2.8 -3,2.9zm103.37 8.14c0,-5.17 4.64,-8.28 8.97,-6.27 1.38,0.65 2.57,2.07 3.07,3.52 0.4,1.13 0.54,2.07 0.54,3.33l-12.58 0 0 -0.58zm-9 3.58c0,5.16 1.52,9.39 3.99,12.09 0.09,0.1 0.13,0.14 0.23,0.25 0.09,0.1 0.17,0.19 0.23,0.25 0.2,0.21 0.29,0.25 0.51,0.46 1.82,1.75 4.41,2.84 6.92,3.25 3.32,0.55 5.99,0.5 9.19,-0.45l1.55 -0.58c2.7,-1.26 5.06,-3.61 6.29,-6.29 0.92,-2.01 0.92,-1.91 0.45,-2.02l-8.26 -1.34c-0.08,0.95 -0.96,2.47 -1.67,3.17 -3.11,3.12 -10.62,1.17 -10.62,-6.56l21.29 0c0,-4.05 -0.01,-5.63 -1.12,-9.43l-0.83 -2.08c-2.71,-5.68 -7.9,-7.76 -13.82,-7.76 -1,0 -2.65,0.24 -3.4,0.47 -0.77,0.23 -1.43,0.4 -2.15,0.75 -2.86,1.38 -5.13,3.39 -6.62,6.17 -0.44,0.82 -0.92,1.88 -1.17,2.8 -0.69,2.51 -0.99,3.97 -0.99,6.85zm-36.88 16.66c2.53,0 5.28,-0.5 7.36,-1.55 2.07,-1.05 3.44,-2.23 4.8,-4.11 0.5,-0.7 1.9,-3.2 1.97,-4.03 -0.56,0 -5.34,-0.85 -6.33,-1.02 -0.43,-0.07 -0.69,-0.09 -1.1,-0.15 -0.35,-0.05 -0.7,-0.17 -1.08,-0.18 -0.21,0.43 -0.25,0.86 -0.67,1.66 -2.63,5.03 -9.81,3.1 -11.24,-2.05 -0.23,-0.82 -0.35,-1.51 -0.4,-2.43 -0.02,-0.41 -0.15,-0.57 0.21,-0.57l21.1 0c0,-3.19 -0.13,-5.81 -0.96,-8.63 -0.79,-2.68 -1.57,-4.13 -3.18,-6.02 -0.2,-0.25 -0.23,-0.35 -0.48,-0.58l-2.27 -1.8c-4.24,-2.72 -10.51,-3.02 -15.18,-0.69 -1.18,0.58 -2.49,1.56 -3.41,2.49 -0.19,0.18 -0.31,0.3 -0.49,0.48 -0.22,0.23 -0.27,0.35 -0.48,0.59 -0.65,0.72 -1.11,1.48 -1.59,2.37l-0.92 1.99c-0.45,1.24 -0.76,2.69 -0.96,4.08 -0.64,4.58 -0.12,9.3 2.11,13.3 1.98,3.57 5.44,5.82 9.49,6.49 1.04,0.17 2.44,0.36 3.7,0.36z"/>
  <g id="_1662431918272">
   <path class="fil1" d="M113.6 57.77l-4.64 -0.09c-0.64,-0.02 -1.19,-0.2 -1.84,-0.2 0,-0.45 0.15,-0.94 0.25,-1.39l2.36 -9.74c3.79,0 9.18,-0.74 11.5,1.57 0.38,0.38 0.67,0.69 0.92,1.21 0.77,1.62 0.54,4.08 -0.44,5.32 -1.21,1.54 -2.73,2.45 -4.66,2.9 -0.9,0.2 -2.44,0.42 -3.45,0.42zm-2.03 -18.78l1.62 -6.9c0.15,-0.71 0.5,-1.73 0.51,-2.4 0.58,-0.14 4.78,-0.45 5.48,-0.35 0.66,0.1 1.25,0.12 1.81,0.23 6.04,1.15 4.57,7.78 -0.38,9.07 -2.15,0.55 -6.32,0.35 -9.04,0.35zm-15.78 25.37c1.35,0.65 8.31,1.12 9.98,1.25 3.98,0.33 10.17,0.05 13.6,-0.8 1.48,-0.37 2.81,-0.83 4.14,-1.39 0.29,-0.12 0.49,-0.24 0.77,-0.38 1.42,-0.71 2.86,-1.61 3.96,-2.72 3.08,-3.1 4.14,-5.75 4.14,-10.58 0,-1.6 -0.7,-3.59 -1.63,-4.76 -0.74,-0.94 -1.54,-1.66 -2.6,-2.25 -0.31,-0.17 -0.82,-0.41 -1,-0.65 0.8,-0.06 3.21,-1.73 4,-2.49 0.43,-0.41 0.67,-0.72 1.06,-1.16 2.38,-2.72 3.08,-7.96 1.42,-11.05 -0.82,-1.52 -1.95,-2.76 -3.53,-3.64l-0.89 -0.47c-0.32,-0.15 -0.68,-0.3 -1.03,-0.42 -3.32,-1.11 -4.92,-1.28 -8.58,-1.3 -0.62,0 -0.83,0.09 -1.35,0.1 -0.91,0.03 -1.89,-0.07 -2.75,0.06 -0.79,0.12 -1.85,0.08 -2.67,0.14 -2.02,0.16 -4.29,0.4 -6.29,0.78 -1.13,0.21 -0.8,0.14 -1.43,2.82 -0.19,0.8 -0.36,1.52 -0.57,2.34l-2.73 11.41c-0.19,0.77 -0.36,1.49 -0.54,2.27l-3.83 16.01c-0.38,1.45 -0.66,3.1 -1.08,4.54l-0.57 2.34z"/>
   <path class="fil1" d="M205.75 52.16c0,-2.49 0.11,-2.89 0.7,-5.21 0.67,-2.67 2.81,-6.14 5.41,-7.08 1.88,-0.68 4.44,-0.56 5.65,1.2 1.64,2.41 1.09,7.67 0.14,10.3 -1.07,2.95 -3.14,6.33 -6.57,6.7 -2.5,0.26 -3.92,-0.41 -4.78,-2.59 -0.3,-0.78 -0.55,-2.27 -0.55,-3.32zm-9.29 0.19c0,3.45 1.01,7.9 3.63,10.32 3.05,2.83 5.8,3.34 9.92,3.34 1.63,0 2.87,-0.27 4.16,-0.58 2,-0.49 3.89,-1.54 5.49,-2.74 1.33,-1 1.99,-1.6 3.1,-2.91 2.96,-3.5 5.06,-9.13 5.06,-14.01 0,-2.45 -0.11,-4.43 -0.97,-6.59 -0.53,-1.33 -1.01,-2.39 -1.96,-3.46 -2.76,-3.17 -5.73,-4.09 -10.62,-4.09 -3.01,0 -5.63,0.93 -7.55,2.03l-1.47 0.95c-2.54,1.89 -4.1,3.54 -5.7,6.31 -1.01,1.76 -1.57,3.12 -2.16,5.1 -0.46,1.53 -0.55,2.48 -0.78,4.06 -0.11,0.74 -0.15,1.48 -0.15,2.27z"/>
   <path class="fil1" d="M241.57 65.13l8.81 0.02c0.79,-0.01 0.52,-0.3 1.12,-2.67 0.17,-0.71 0.33,-1.39 0.5,-2.01l0.48 -2.04c0.74,-3.52 1.93,-7.73 2.69,-11.25l1.69 -7.23c0.87,-0.2 2.53,-0.38 3.58,-0.38 4.47,0 4.45,3.51 3.7,6.8l-4.47 18.76 9.38 0c0.44,-1.85 0.89,-3.73 1.34,-5.53 0.24,-0.96 0.39,-1.89 0.66,-2.83 0.15,-0.49 0.2,-0.94 0.34,-1.41 0.13,-0.45 0.22,-0.87 0.34,-1.4 0.22,-0.97 0.49,-1.84 0.67,-2.81 0.7,-3.63 2.24,-7.08 1.33,-11.61 -0.19,-0.92 -0.33,-1.31 -0.62,-2.09 -2.58,-6.88 -12.63,-6.16 -18.68,-4.96 -0.55,0.11 -0.88,0.22 -1.4,0.34 -1.02,0.23 -1.69,0.49 -2.62,0.77 -1.51,0.44 -1.33,-0.11 -1.98,2.96 -0.46,2.13 -1.22,4.77 -1.65,6.87l-1.3 5.38c-0.47,1.87 -0.86,3.61 -1.32,5.46 -0.21,0.84 -0.43,1.81 -0.64,2.65l-1.95 8.21z"/>
   <path class="fil1" d="M149.61 56.61c0,1.8 0.2,2.71 0.76,4.28 0.37,1.01 1.19,2.06 1.93,2.72 0.78,0.69 1.86,1.29 2.98,1.66 2.98,0.98 7.73,0.78 10.75,0.12 0.77,-0.17 3.14,-0.85 3.71,-1.13 0,-1.14 -0.67,-6.12 -0.67,-7.07 -0.68,0.02 -2.85,0.97 -4.75,0.97 -1.57,0 -3.03,0.15 -4.31,-0.81 -2.21,-1.65 -0.54,-6.45 0.05,-8.87l1.84 -7.56c0.25,-1.08 -0.17,-0.77 3.59,-0.77 2.29,0 4.58,0 6.87,0l1.84 -7.65 -10.26 0c0,-0.52 1.76,-7.3 2.03,-8.43 0.09,-0.39 0.28,-0.84 0.29,-1.26l-2.68 0.42c-0.83,0.12 -1.92,0.29 -2.77,0.43l-4.01 0.63c-0.26,0.09 -0.24,0.12 -0.32,0.45 -0.06,0.22 -0.13,0.52 -0.17,0.71l-5.4 22.87c-0.6,2.36 -1.3,5.82 -1.3,8.29z"/>
   <path class="fil1" d="M171.39 51.38c0,2.28 0.13,4.89 1.03,6.91 0.61,1.4 0.94,2.04 1.86,3.18 0.16,0.2 0.64,0.73 0.83,0.91 3.13,2.89 6.22,3.63 11.19,3.63 2.58,0 6.02,-0.69 8.22,-1.75l-0.67 -7.45c-0.26,0.06 -0.63,0.21 -0.93,0.33 -0.84,0.32 -2.25,0.65 -3.18,0.79 -2.96,0.43 -6.19,0.45 -7.8,-2.39 -1.82,-3.22 -0.96,-9.87 1.53,-12.7 1.02,-1.17 1.58,-1.68 3.02,-2.4 1.94,-0.98 5.35,-1.26 7.63,-0.56 0.39,0.12 0.97,0.3 1.37,0.46l1 0.37c0.39,0.11 0.32,0.06 0.69,-0.81 0.37,-0.91 2.72,-5.91 2.76,-6.43 -0.26,-0.07 -0.57,-0.21 -0.83,-0.33 -1.26,-0.57 -2.51,-0.84 -3.87,-1.16 -0.41,-0.1 -0.63,-0.12 -1.07,-0.19 -1.3,-0.19 -2.47,-0.16 -3.81,-0.16 -3.64,0 -6.85,1 -9.5,2.59 -2.49,1.49 -4.6,3.49 -6.18,5.93 -1.96,3.05 -3.29,7.22 -3.29,11.23z"/>
   <path class="fil1" d="M133.25 65.13l9.29 0 0.49 -2.03c0.66,-2.59 1.27,-5.65 1.93,-8.13 0.71,-2.62 1.29,-5.48 1.96,-8.12 0.16,-0.64 0.31,-1.35 0.48,-2.03 0.34,-1.33 0.63,-2.69 0.97,-4.07 0.3,-1.22 1.92,-7.69 1.92,-8.25l-9.29 0 -1.92 8.16c-0.73,3.49 -1.9,7.66 -2.66,11.18l-3.17 13.29z"/>
   <path class="fil1" d="M227.14 65.13l9.3 0c0.01,-0.61 1.74,-7.53 1.91,-8.15l3.89 -16.25c0.09,-0.35 0.13,-0.65 0.22,-1.04 0.07,-0.3 0.19,-0.64 0.26,-1l0.96 -4.07c0.11,-0.38 0.15,-0.59 0.25,-1.02 0.08,-0.39 0.22,-0.73 0.25,-1.1l-9.29 0c-0.14,0.28 -0.17,0.63 -0.26,1.01l-2.66 11.18c-0.31,1.55 -0.9,3.53 -1.2,5.09 -0.42,2.14 -1.53,5.98 -1.94,8.13 -0.09,0.47 -0.16,0.59 -0.26,1l-0.95 4.09c-0.14,0.65 -0.42,1.46 -0.48,2.13z"/>
   <path class="fil1" d="M141.87 23.78c0,0.79 0.14,1.43 0.37,2.05 0.56,1.54 2.6,2.7 4.27,2.7 2.15,0 3.53,-0.37 5.06,-1.91 1.97,-1.98 2.71,-5.72 0.39,-7.8 -1.6,-1.44 -4.41,-1.6 -6.38,-0.63 -0.71,0.36 -1.07,0.59 -1.62,1.1l-0.19 0.19c-0.63,0.68 -0.85,0.94 -1.29,1.81 -0.3,0.59 -0.61,1.66 -0.61,2.49z"/>
   <path class="fil1" d="M235.76 23.68c0,1.43 0.17,2.25 1.01,3.25 1.16,1.36 3.86,1.98 5.7,1.44 0.26,-0.08 0.74,-0.26 0.98,-0.38 0.28,-0.13 0.61,-0.32 0.87,-0.49 2.62,-1.72 4,-5.58 1.95,-8.23 -0.95,-1.23 -2.75,-1.69 -4.32,-1.69 -3.22,0 -6.19,2.9 -6.19,6.1z"/>
  </g>
  <path class="fil0" d="M11.27 40.19c0,5.23 0.84,8.25 2.65,12.62l1.21 2.38c0.66,1.2 2.23,3.42 3.05,4.34l1.76 1.93c0.17,0.16 0.28,0.21 0.48,0.41l3.5 2.89c1.04,0.7 2.24,1.47 3.36,2.03 0.46,0.23 0.83,0.4 1.28,0.61 5.23,2.44 11.26,3.1 16.98,2.19 0.56,-0.09 1.02,-0.2 1.58,-0.31 1.1,-0.22 2.44,-0.65 3.47,-1.03l2.01 -0.78c2.35,-1.02 4.8,-2.61 6.76,-4.21l3.66 -3.63c5.64,-6.48 8.2,-15.86 6.49,-24.32 -0.47,-2.35 -0.71,-3.37 -1.63,-5.65 -0.89,-2.25 -1.3,-2.82 -2.48,-4.81 -0.27,-0.45 -0.49,-0.74 -0.76,-1.13l-1.97 -2.52c-0.18,-0.18 -0.29,-0.26 -0.44,-0.46l-1.17 -1.22c-0.02,-0.01 -0.04,-0.03 -0.05,-0.05 -2.91,-2.88 -7.04,-5.35 -10.92,-6.64 -2.36,-0.78 -3.54,-1 -5.95,-1.34 -6.06,-0.84 -12.54,0.57 -17.84,3.52 -1.35,0.75 -3.19,1.99 -4.33,2.96l-1.94 1.74c-2.06,1.9 -5,6.06 -6.02,8.55l-1.04 2.55c-0.17,0.42 -0.28,0.88 -0.44,1.36 -0.72,2.13 -1.26,5.81 -1.26,8.02z"/>
  <path class="fil1" d="M29.72 29.61l0 -2.99 6.09 0c0.23,0 0.3,-0.07 0.3,-0.3l0 -3.79c4.28,0 4.01,-0.3 3.99,0.79 0,0.4 0,0.8 0,1.2 0,2.61 -0.6,2.1 2.79,2.1l0 -4.09 3.79 0c0.23,0 0.3,0.07 0.3,0.3l0 4.09c0.76,0.02 1.5,0.37 2.07,0.62 0.77,0.35 1.02,0.6 1.61,1.09 1.6,1.34 2.19,4 1.28,5.94 -0.79,1.66 -2.24,3 -4.06,3.43l0 0.2c1.06,0.08 2.89,0.95 3.72,1.76 1.82,1.82 2.17,4.61 0.97,6.92 -1.04,1.99 -2.99,3.19 -5.13,3.66 -0.29,0.06 -0.46,0 -0.46,0.33l0 4.09 -4.09 0 0 -3.99 -2.49 0c-0.23,0 -0.3,0.07 -0.3,0.3l0 3.69 -3.99 0 0 -3.69c0,-0.23 -0.07,-0.3 -0.3,-0.3l-6.09 0 0 -3.29c1.02,0 2.9,0.27 2.9,-1.1l0 -15.57c0,-1.89 -2.9,-0.55 -2.9,-1.4zm8.88 10.68l0 5.99c0,0.62 0.36,0.9 1,0.9 1.97,0 4.38,0.23 5.98,-0.8 1.65,-1.07 2.22,-4.61 -0.26,-5.83 -1.47,-0.72 -4.53,-0.56 -6.42,-0.56 -0.23,0 -0.3,0.07 -0.3,0.3zm0 -9.58l0 5.79c1.81,0 5,0.19 6.42,-0.57 1.86,-0.99 1.8,-3.44 0.84,-4.4 -1.2,-1.21 -2.85,-1.12 -5.06,-1.12 -1.35,0 -2.2,-0.2 -2.2,0.3z"/>
  <g id="_1662431925344">
   <path class="fil1" d="M39.47 59.35c0.31,0 0.51,0.2 0.59,0.45 0.05,0.14 0.03,0.22 0.06,0.31l-1.29 0c0,-0.19 0.05,-0.41 0.16,-0.54 0.12,-0.13 0.27,-0.22 0.48,-0.22zm0.03 2.76c0.25,0 0.53,-0.05 0.74,-0.16 0.22,-0.11 0.35,-0.23 0.49,-0.42 0.05,-0.07 0.2,-0.32 0.2,-0.41 -0.05,0 -0.54,-0.09 -0.64,-0.1 -0.04,-0.01 -0.07,-0.01 -0.11,-0.02 -0.04,0 -0.07,-0.02 -0.11,-0.02 -0.02,0.05 -0.03,0.09 -0.07,0.17 -0.27,0.51 -1,0.32 -1.15,-0.21 -0.02,-0.08 -0.03,-0.15 -0.03,-0.24 -0.01,-0.04 -0.02,-0.06 0.02,-0.06l2.14 0c0,-0.33 -0.01,-0.59 -0.1,-0.88 -0.08,-0.27 -0.16,-0.42 -0.32,-0.61 -0.02,-0.03 -0.02,-0.04 -0.05,-0.06l-0.23 -0.18c-0.43,-0.28 -1.07,-0.31 -1.54,-0.07 -0.12,0.06 -0.26,0.16 -0.35,0.25 -0.02,0.02 -0.03,0.03 -0.05,0.05 -0.02,0.02 -0.03,0.03 -0.05,0.06 -0.06,0.07 -0.11,0.15 -0.16,0.24l-0.09 0.2c-0.05,0.13 -0.08,0.27 -0.1,0.42 -0.07,0.46 -0.01,0.94 0.21,1.35 0.2,0.36 0.56,0.59 0.97,0.66 0.1,0.02 0.25,0.04 0.38,0.04z"/>
   <path class="fil1" d="M45.17 60.05c0,-0.53 0.47,-0.85 0.91,-0.64 0.14,0.07 0.26,0.21 0.31,0.36 0.04,0.11 0.06,0.21 0.06,0.34l-1.28 0 0 -0.06zm-0.92 0.36c0,0.53 0.15,0.96 0.41,1.23 0.01,0.01 0.01,0.02 0.02,0.03 0.01,0.01 0.02,0.02 0.02,0.02 0.02,0.02 0.03,0.03 0.05,0.05 0.19,0.18 0.45,0.29 0.71,0.33 0.34,0.05 0.61,0.05 0.93,-0.05l0.16 -0.05c0.28,-0.13 0.52,-0.37 0.64,-0.65 0.09,-0.2 0.09,-0.19 0.05,-0.2l-0.84 -0.14c-0.01,0.1 -0.1,0.25 -0.17,0.33 -0.32,0.31 -1.08,0.11 -1.08,-0.67l2.16 0c0,-0.41 0,-0.57 -0.11,-0.96l-0.09 -0.21c-0.27,-0.58 -0.8,-0.79 -1.4,-0.79 -0.1,0 -0.27,0.02 -0.35,0.05 -0.08,0.02 -0.14,0.04 -0.22,0.07 -0.29,0.14 -0.52,0.35 -0.67,0.63 -0.05,0.08 -0.09,0.19 -0.12,0.28 -0.07,0.26 -0.1,0.41 -0.1,0.7z"/>
   <path class="fil1" d="M32.49 59.22l0 -0.47 -0.81 0 0 3.28 0.88 0c0,-0.37 -0.02,-1.78 0.03,-2.07 0.02,-0.16 0.06,-0.28 0.16,-0.38 0,-0.01 0.01,-0.01 0.01,-0.02 0.04,-0.04 0.1,-0.09 0.16,-0.12 0.28,-0.16 0.7,-0.12 0.82,0.23 0.06,0.17 0.06,0.51 0.06,0.74l0 1.62 0.88 0 0 -1.91c0,-0.58 -0.03,-1.1 -0.56,-1.33 -0.38,-0.16 -0.85,-0.16 -1.2,0.06 -0.05,0.02 -0.08,0.05 -0.12,0.07 -0.15,0.11 -0.29,0.29 -0.31,0.3z"/>
   <path class="fil1" d="M47.94 59.63c0,0.18 0,0.29 0.08,0.45 0.16,0.32 0.42,0.43 0.76,0.54 0.1,0.03 0.22,0.07 0.33,0.09l0.69 0.18c0.09,0.03 0.15,0.05 0.19,0.14 0.03,0.09 0.02,0.19 -0.04,0.26 -0.07,0.1 -0.21,0.14 -0.33,0.16 -0.36,0.06 -0.76,0.01 -0.89,-0.37 -0.01,-0.03 -0.03,-0.09 -0.04,-0.12 -0.06,0.02 -0.15,0.03 -0.21,0.04l-0.66 0.1c0,0.07 0.06,0.19 0.08,0.24l0.12 0.2c0.05,0.07 0.09,0.11 0.15,0.17 0.53,0.52 1.88,0.53 2.38,0.02 0.15,-0.14 0.24,-0.25 0.3,-0.47 0.06,-0.21 0.04,-0.48 -0.05,-0.65 -0.15,-0.31 -0.48,-0.45 -0.8,-0.54l-0.38 -0.1c-0.19,-0.04 -0.5,-0.13 -0.68,-0.19 -0.3,-0.11 -0.31,-0.47 0.39,-0.47 0.22,0 0.43,0.05 0.53,0.21 0.03,0.05 0.08,0.12 0.08,0.18l0.83 -0.15c-0.01,-0.1 -0.11,-0.29 -0.17,-0.38 -0.17,-0.25 -0.4,-0.37 -0.69,-0.44 -0.45,-0.1 -1.18,-0.08 -1.55,0.18 -0.2,0.13 -0.42,0.39 -0.42,0.72z"/>
   <path class="fil1" d="M51.75 58.13l0 0.62 -0.39 0 0 0.71 0.39 0 0 1.59c0,0.38 0.02,0.73 0.29,0.9 0.03,0.02 0.05,0.03 0.08,0.05l0.08 0.03c0.06,0.03 0.11,0.04 0.18,0.05 0.24,0.06 0.53,0.01 0.75,-0.05 0.06,-0.02 0.1,-0.04 0.16,-0.05 0,-0.07 -0.01,-0.11 -0.02,-0.17l-0.03 -0.34c-0.01,-0.05 -0.02,-0.11 -0.02,-0.17l-0.17 0.05c-0.13,0.04 -0.33,0.06 -0.39,-0.09 -0.03,-0.05 -0.03,-0.21 -0.03,-0.3l0 -1.5 0.56 0c0.02,0 0.03,-0.01 0.03,-0.03l0 -0.68 -0.59 0 0 -1.15c-0.05,0.01 -0.73,0.42 -0.84,0.48 -0.02,0.01 -0.04,0.02 -0.04,0.05z"/>
   <path class="fil1" d="M35.71 58.13l0 0.62 -0.4 0 0 0.68c0,0.02 0.01,0.03 0.03,0.03l0.37 0 0 1.42c0,0.3 -0.01,0.66 0.13,0.91 0.22,0.41 1.06,0.36 1.41,0.18 -0.02,-0.09 -0.04,-0.37 -0.06,-0.5 0,-0.05 -0.02,-0.13 -0.02,-0.17 -0.08,0.01 -0.49,0.21 -0.57,-0.07 -0.03,-0.13 -0.02,-1.56 -0.02,-1.77l0.56 0c0.02,0 0.03,-0.01 0.03,-0.03l0 -0.68 -0.59 0 0 -1.15c-0.04,0.01 -0.4,0.23 -0.45,0.26l-0.38 0.22c-0.02,0.01 -0.04,0.02 -0.04,0.05z"/>
   <path class="fil1" d="M29.69 62.03l0.93 0 0 -4.52 -0.93 0 0 4.52z"/>
   <path class="fil1" d="M42.58 59.19l0 -0.36c0,-0.04 0.01,-0.08 -0.03,-0.08l-0.76 0c-0.02,0 -0.03,0 -0.03,0.03l0 3.25 0.87 0c0,-0.22 -0.01,-1.47 0.02,-1.7 0.01,-0.04 0,-0.08 0.01,-0.11 0,-0.03 0.01,-0.08 0.01,-0.11 0.05,-0.32 0.16,-0.65 0.54,-0.65 0.16,0 0.28,0.07 0.41,0.14l0.13 -0.38c0.02,-0.04 0.13,-0.35 0.13,-0.38 -0.03,-0.01 -0.03,-0.02 -0.06,-0.03 -0.2,-0.13 -0.54,-0.18 -0.79,-0.08 -0.08,0.03 -0.12,0.07 -0.18,0.12 -0.15,0.14 -0.2,0.26 -0.27,0.34z"/>
  </g>
  <g id="_1662431928096">
   <path class="fil1" d="M4.19 41.69c0,-2.65 -0.03,-3.44 0.33,-6.16l0.95 -4.63c0.1,-0.32 0.15,-0.48 0.26,-0.85 1.28,-4.53 4.01,-9.36 7.07,-12.98 2.92,-3.46 7.18,-6.89 11.17,-8.88 0.55,-0.28 0.98,-0.51 1.55,-0.75 2.68,-1.09 3.42,-1.51 6.6,-2.28 5.64,-1.37 11.17,-1.29 16.81,-0.06 0.59,0.13 1.25,0.29 1.75,0.45l3.35 1.15c2.38,0.84 4.44,2.12 6.56,3.41 0.34,0.21 0.4,0.27 0.71,0.48 0.93,0.64 1.71,1.23 2.57,1.93 1.88,1.52 2.93,2.8 4.48,4.39 2.04,2.09 4.85,6.95 5.97,9.69 1.57,3.82 2.78,8.8 2.78,12.99 0,2.75 0.04,3.4 -0.35,6.23 -0.2,1.42 -0.42,2.52 -0.74,3.75 -1.21,4.54 -2.91,8.49 -5.7,12.26 -0.17,0.23 -0.28,0.41 -0.46,0.65l-3.69 4.18c-5.5,5.51 -14.48,10.46 -25.46,10.46 -1.35,0 -2.99,-0.07 -4.25,-0.24 -2.52,-0.35 -3.14,-0.49 -5.59,-1.1 -0.39,-0.1 -0.51,-0.16 -0.84,-0.26 -0.32,-0.1 -0.61,-0.19 -0.91,-0.29 -0.58,-0.19 -1.03,-0.36 -1.62,-0.57l-2.37 -1.02c-0.27,-0.13 -0.48,-0.21 -0.75,-0.35 -0.3,-0.14 -0.43,-0.23 -0.71,-0.38 -0.25,-0.13 -0.49,-0.26 -0.78,-0.43 -2.37,-1.4 -3.17,-1.91 -5.34,-3.63 -1.42,-1.13 -3.46,-3.16 -4.68,-4.6l-0.09 -0.11c-0.02,-0.01 -0.03,-0.04 -0.05,-0.05 -2.87,-3.4 -4.71,-6.8 -6.37,-11 -0.42,-1.07 -0.77,-2.3 -1.04,-3.44 -0.09,-0.37 -0.16,-0.49 -0.25,-0.85 -0.44,-1.88 -0.87,-5.2 -0.87,-7.11zm-4.19 -1.6c0,4.46 0.28,6.02 1.1,10.07l0.53 1.97c0.65,1.99 1.14,3.5 2.09,5.49 1.07,2.23 2.2,4.4 3.69,6.4l2.73 3.45c0.26,0.3 0.32,0.4 0.61,0.69l2.54 2.55c3.38,3.13 8.17,6.08 12.41,7.73 0.64,0.25 1.23,0.43 1.83,0.67 3.31,1.33 9.64,2.2 13.07,2.2 3.07,0 6.52,-0.4 9.03,-1.04 0.72,-0.18 1.3,-0.33 2,-0.5 1.28,-0.32 2.49,-0.79 3.74,-1.24 3.27,-1.18 8.45,-4.19 11.18,-6.58 2.96,-2.59 3.8,-3.48 6.19,-6.39 0.82,-0.99 2.37,-3.31 3.06,-4.51 6.45,-11.21 7.44,-25.58 1.84,-37.26 -0.84,-1.74 -1.54,-3.22 -2.63,-4.86 -1.1,-1.65 -2.97,-4.3 -4.31,-5.66 -0.24,-0.24 -0.42,-0.41 -0.66,-0.65 -0.26,-0.26 -0.34,-0.42 -0.6,-0.68l-0.3 -0.3c-2.38,-2.06 -2.2,-2.06 -5.13,-4.25 -1.68,-1.26 -4.45,-2.79 -6.39,-3.69 -1.47,-0.69 -2.09,-0.89 -3.56,-1.43 -5.97,-2.19 -12.37,-2.71 -18.68,-1.93 -2.54,0.32 -5.76,1.03 -8.08,1.9 -0.65,0.24 -1.17,0.41 -1.82,0.67l-2.57 1.13c-0.24,0.11 -0.18,0.12 -0.37,0.22 -0.19,0.09 -0.3,0.11 -0.49,0.21l-1.6 0.9c-1.09,0.65 -1.98,1.15 -3.05,1.93 -1.2,0.88 -2.37,1.73 -3.46,2.72l-1.34 1.26c-0.72,0.69 -0.34,0.14 -1.26,1.24 -0.2,0.24 -0.42,0.43 -0.64,0.65l-1.18 1.31c-0.76,0.97 -1.48,1.81 -2.16,2.84 -2.3,3.45 -3.19,5.06 -4.77,9 -0.72,1.82 -1.66,5.05 -1.91,6.87 -0.09,0.65 -0.3,1.46 -0.36,2.13 -0.16,1.58 -0.32,3.06 -0.32,4.77z"/>
   <path class="fil2" d="M40.98 8.94c1.42,0 1.51,-2.12 0.03,-2.19 -3.73,-0.05 -7.34,0.47 -10.9,1.58l-0.22 0.07c-1.37,0.46 -0.68,2.53 0.68,2.08l0.19 -0.06c3.37,-1.04 6.7,-1.53 10.22,-1.48zm-26.16 13.35c-0.84,1.13 -2.59,-0.06 -1.77,-1.29 2.18,-3.02 4.75,-5.61 7.77,-7.81l0.18 -0.14c1.18,-0.83 2.44,0.96 1.26,1.79l-0.16 0.12c-2.84,2.08 -5.22,4.47 -7.28,7.33zm-4.29 8.24c0.43,-1.35 -1.56,-2.08 -2.07,-0.69 -1.19,3.54 -1.79,7.13 -1.82,10.87l0 0.22c0.01,1.45 2.2,1.42 2.19,-0.01l0 -0.2c0.03,-3.52 0.58,-6.85 1.7,-10.19zm-0.24 19.65c-0.46,-1.33 -2.49,-0.73 -2.08,0.69 1.17,3.55 2.83,6.79 5.05,9.8l0.13 0.18c0.88,1.15 2.61,-0.18 1.74,-1.32l-0.11 -0.16c-2.09,-2.84 -3.63,-5.84 -4.73,-9.19zm11.54 15.87c-1.13,-0.83 -2.47,0.81 -1.32,1.75 2.97,2.26 6.19,3.98 9.71,5.21l0.22 0.07c1.37,0.45 2.05,-1.63 0.68,-2.08l-0.19 -0.06c-3.32,-1.16 -6.29,-2.75 -9.1,-4.89zm18.51 6.3c-1.41,0.01 -1.48,2.13 0,2.18 3.73,0.01 7.34,-0.55 10.89,-1.7l0.21 -0.08c1.37,-0.46 0.65,-2.53 -0.7,-2.06l-0.2 0.06c-3.35,1.08 -6.68,1.61 -10.2,1.6zm18.7 -5.9c-1.14,0.84 0.04,2.6 1.27,1.77 3.04,-2.17 5.63,-4.73 7.84,-7.74l0.13 -0.18c0.84,-1.18 -0.95,-2.44 -1.78,-1.27l-0.12 0.16c-2.08,2.84 -4.48,5.21 -7.34,7.26zm11.72 -15.82c-0.42,1.35 1.56,2.08 2.08,0.69 1.18,-3.54 1.78,-7.13 1.8,-10.87l0 -0.22c-0.01,-1.45 -2.2,-1.42 -2.18,0.01l0 0.2c-0.03,3.53 -0.58,6.85 -1.7,10.19zm0.18 -19.7c0.47,1.34 2.5,0.72 2.07,-0.7 -1.19,-3.54 -2.88,-6.77 -5.11,-9.76l-0.13 -0.18c-0.89,-1.15 -2.62,0.19 -1.74,1.33l0.12 0.16c2.1,2.83 3.67,5.81 4.79,9.15zm-11.42 -15.78c1.15,0.82 2.45,-0.85 1.29,-1.77 -3.01,-2.21 -6.24,-3.89 -9.78,-5.06l-0.22 -0.07c-1.38,-0.43 -2.03,1.66 -0.66,2.09l0.19 0.06c3.35,1.11 6.34,2.65 9.18,4.75z"/>
  </g>
 </g>
</svg>
