<?xml version="1.0" encoding="UTF-8"?>
<!DOCTYPE svg PUBLIC "-//W3C//DTD SVG 1.0//EN" "http://www.w3.org/TR/2001/REC-SVG-20010904/DTD/svg10.dtd">
<!-- Creator: CorelDRAW 2017 -->
<svg xmlns="http://www.w3.org/2000/svg" xml:space="preserve" width="1022px" height="170px" version="1.0" style="shape-rendering:geometricPrecision; text-rendering:geometricPrecision; image-rendering:optimizeQuality; fill-rule:evenodd; clip-rule:evenodd"
viewBox="0 0 991.6 165.02"
 xmlns:xlink="http://www.w3.org/1999/xlink">
 <defs>
  <style type="text/css">
   <![CDATA[
    .fil1 {fill:#213D8F}
    .fil0 {fill:#F77416}
    .fil2 {fill:white}
    .fil3 {fill:#213D8F;fill-rule:nonzero}
   ]]>
  </style>
 </defs>
 <g id="Слой_x0020_1">
  <metadata id="CorelCorpID_0Corel-Layer"/>
  <path class="fil0" d="M752.13 78.73c6.32,0 10.24,3.95 11.96,9.07 0.95,2.8 0.59,4.27 1.01,6.07l-25.74 0c0,-3.68 1,-8.1 3.29,-10.67 2.43,-2.72 5.48,-4.47 9.48,-4.47zm53.44 -3.14l0 -7.08c0.02,-0.88 0.24,-1.77 -0.59,-1.77l-15.13 0c-0.45,0 -0.59,0.14 -0.59,0.59l0 64.86 17.48 0c0,-4.26 -0.27,-29.33 0.34,-33.86 0.11,-0.77 0,-1.51 0.09,-2.27 0.05,-0.5 0.18,-1.43 0.27,-2.08 0.93,-6.37 3.18,-13.08 10.7,-13.08 3.27,0 5.6,1.54 8.25,2.94l2.64 -7.58c0.32,-0.85 2.6,-6.97 2.66,-7.75 -0.61,-0.14 -0.72,-0.25 -1.21,-0.55 -4.06,-2.48 -10.76,-3.52 -15.77,-1.5 -1.59,0.64 -2.55,1.33 -3.71,2.38 -2.99,2.72 -3.98,5.07 -5.43,6.75zm-214.72 56.6l18.46 0 0 -90.21 -18.46 0 0 90.21zm100.58 -77.83l0 12.38 -7.86 0 0 13.56c0,0.46 0.14,0.6 0.59,0.6l7.27 0 0 28.49c0,5.83 -0.11,13.12 2.62,18.02 4.53,8.15 21.28,7.28 28.22,3.61 -0.4,-1.72 -0.89,-7.42 -1.19,-10.01 -0.11,-0.88 -0.36,-2.49 -0.38,-3.36 -1.72,0.14 -9.8,4.19 -11.36,-1.4 -0.74,-2.64 -0.43,-31.16 -0.43,-35.35l11.2 0c0.45,0 0.59,-0.14 0.59,-0.6l0 -13.56 -11.79 0 0 -22.8c-0.85,0.2 -8.03,4.5 -8.92,5.03l-7.72 4.46c-0.42,0.23 -0.84,0.36 -0.84,0.93zm269.53 0l0 12.38 -7.86 0 0 14.16 7.86 0 0 31.84c0,7.53 0.42,14.44 5.81,17.97 0.59,0.38 0.9,0.5 1.51,0.84l1.63 0.73c1.32,0.5 2.29,0.74 3.67,1.05 4.65,1.03 10.6,0.11 14.92,-1.09 1.21,-0.34 2.04,-0.78 3.1,-1.03 0,-1.28 -0.11,-2.22 -0.28,-3.45l-0.73 -6.73c-0.13,-1.03 -0.36,-2.16 -0.36,-3.38l-3.36 0.96c-2.63,0.83 -6.58,1.17 -7.85,-1.74 -0.47,-1.07 -0.58,-4.23 -0.58,-5.9l0 -30.07 11.2 0c0.45,0 0.59,-0.14 0.59,-0.6l0 -13.56 -11.79 0 0 -22.8c-0.88,0.08 -14.48,8.24 -16.65,9.49 -0.41,0.24 -0.83,0.35 -0.83,0.93zm-68.17 30.07c0,3.63 0.01,5.76 1.64,8.98 3.14,6.24 8.23,8.42 15.03,10.7 2.01,0.68 4.44,1.39 6.55,1.9l13.84 3.45c1.75,0.59 3.1,1.13 3.73,2.76 0.74,1.93 0.45,3.77 -0.68,5.27 -1.47,1.96 -4.16,2.81 -6.6,3.22 -7.14,1.19 -15.12,0.14 -17.82,-7.36 -0.22,-0.6 -0.5,-1.85 -0.76,-2.38 -1.2,0.28 -3.01,0.57 -4.18,0.73l-13.11 2.02c0,1.39 1.1,3.69 1.57,4.72l2.41 4.07c1,1.34 1.78,2.2 2.94,3.35 10.5,10.39 37.42,10.68 47.55,0.49 2.92,-2.95 4.68,-5.18 5.89,-9.44 1.16,-4.12 0.76,-9.66 -0.96,-13.09 -3.1,-6.18 -9.65,-8.81 -15.96,-10.76l-7.67 -1.96c-3.73,-0.81 -10.02,-2.49 -13.55,-3.74 -5.97,-2.12 -6.11,-9.41 7.84,-9.41 4.29,0 8.48,1.02 10.65,4.28 0.59,0.88 1.5,2.25 1.53,3.58l16.5 -2.95c-0.18,-2.18 -2.23,-5.97 -3.45,-7.75 -3.37,-4.85 -7.9,-7.3 -13.76,-8.64 -8.89,-2.04 -23.39,-1.66 -30.88,3.45 -3.95,2.7 -8.29,7.96 -8.29,14.51zm-256.76 -8.25l0 -9.44 -16.11 0 0 65.45 17.49 0c0,-7.41 -0.44,-35.45 0.53,-41.33 0.51,-3.14 1.26,-5.49 3.21,-7.59 0.12,-0.13 0.14,-0.16 0.29,-0.31 0.81,-0.88 2.04,-1.78 3.1,-2.4 5.53,-3.25 14,-2.43 16.37,4.53 1.15,3.37 1.25,10.33 1.25,14.87l0 32.23 17.48 0 0 -38.13c0,-11.58 -0.61,-21.88 -11.14,-26.39 -7.62,-3.27 -16.91,-3.22 -23.99,1.07 -0.86,0.53 -1.61,0.99 -2.39,1.54 -2.97,2.1 -5.79,5.68 -6.09,5.9zm209.81 16.51c0,-10.49 9.41,-16.8 18.21,-12.72 2.8,1.31 5.2,4.19 6.23,7.14 0.79,2.28 1.1,4.2 1.1,6.76l-25.54 0 0 -1.18zm-18.27 7.27c0,10.47 3.08,19.04 8.09,24.53 0.19,0.21 0.27,0.29 0.47,0.51 0.19,0.2 0.35,0.39 0.47,0.52 0.4,0.42 0.59,0.49 1.04,0.92 3.7,3.56 8.95,5.76 14.04,6.6 6.74,1.11 12.16,1 18.65,-0.91l3.15 -1.18c5.48,-2.56 10.26,-7.33 12.76,-12.77 1.87,-4.07 1.88,-3.88 0.91,-4.1l-16.75 -2.72c-0.16,1.92 -1.96,5.01 -3.39,6.44 -6.32,6.33 -21.56,2.38 -21.56,-13.32l43.21 0c0,-8.21 -0.02,-11.42 -2.28,-19.13l-1.68 -4.22c-5.49,-11.53 -16.03,-15.76 -28.06,-15.76 -2.01,0 -5.37,0.5 -6.9,0.95 -1.56,0.47 -2.88,0.83 -4.36,1.54 -5.79,2.79 -10.4,6.86 -13.42,12.51 -0.9,1.66 -1.88,3.82 -2.39,5.68 -1.4,5.11 -2,8.07 -2,13.91zm-74.85 33.81c5.14,0 10.71,-1.01 14.93,-3.15 4.21,-2.12 6.98,-4.53 9.74,-8.33 1.03,-1.43 3.87,-6.5 4.01,-8.18 -1.14,0 -10.85,-1.74 -12.85,-2.08 -0.86,-0.14 -1.4,-0.19 -2.24,-0.31 -0.7,-0.1 -1.41,-0.34 -2.19,-0.36 -0.43,0.88 -0.5,1.76 -1.35,3.37 -5.34,10.21 -19.92,6.3 -22.82,-4.15 -0.46,-1.66 -0.7,-3.08 -0.8,-4.93 -0.05,-0.83 -0.32,-1.17 0.41,-1.17l42.83 0c0,-6.47 -0.26,-11.78 -1.95,-17.52 -1.59,-5.43 -3.19,-8.37 -6.44,-12.22 -0.42,-0.49 -0.49,-0.69 -0.99,-1.17l-4.61 -3.64c-8.6,-5.53 -21.31,-6.14 -30.8,-1.42 -2.39,1.19 -5.04,3.18 -6.93,5.06 -0.37,0.38 -0.62,0.6 -0.99,0.98 -0.45,0.47 -0.54,0.7 -0.98,1.18 -1.31,1.48 -2.24,3.02 -3.22,4.83l-1.86 4.04c-0.91,2.51 -1.55,5.46 -1.95,8.27 -1.3,9.3 -0.25,18.87 4.27,27 4.03,7.24 11.05,11.81 19.26,13.17 2.12,0.35 4.96,0.73 7.52,0.73z"/>
  <g id="_1662440346864">
   <path class="fil1" d="M230.56 117.26l-9.43 -0.2c-1.3,-0.04 -2.4,-0.39 -3.73,-0.39 0,-0.92 0.3,-1.93 0.51,-2.83l4.79 -19.78c7.69,0 18.63,-1.48 23.34,3.19 0.77,0.77 1.37,1.4 1.87,2.46 1.56,3.28 1.09,8.28 -0.9,10.81 -2.45,3.11 -5.54,4.96 -9.46,5.87 -1.82,0.42 -4.95,0.87 -6.99,0.87zm-4.12 -38.13l3.29 -14.01c0.3,-1.42 1,-3.5 1.03,-4.86 1.19,-0.28 9.7,-0.92 11.11,-0.71 1.35,0.2 2.55,0.24 3.68,0.46 12.27,2.35 9.28,15.8 -0.77,18.4 -4.36,1.13 -12.83,0.72 -18.34,0.72zm-32.02 51.49c2.74,1.32 16.85,2.27 20.24,2.55 8.09,0.67 20.65,0.1 27.61,-1.64 3,-0.75 5.71,-1.69 8.39,-2.81 0.59,-0.25 1,-0.49 1.58,-0.78 2.88,-1.45 5.79,-3.27 8.04,-5.52 6.23,-6.28 8.39,-11.67 8.39,-21.48 0,-3.24 -1.42,-7.27 -3.31,-9.66 -1.49,-1.89 -3.13,-3.36 -5.27,-4.55 -0.63,-0.35 -1.67,-0.84 -2.02,-1.32 1.62,-0.13 6.5,-3.51 8.1,-5.05 0.87,-0.84 1.37,-1.48 2.16,-2.37 4.84,-5.51 6.25,-16.15 2.87,-22.43 -1.65,-3.08 -3.95,-5.59 -7.15,-7.38l-1.81 -0.95c-0.65,-0.32 -1.37,-0.62 -2.08,-0.86 -6.76,-2.25 -10,-2.58 -17.42,-2.63 -1.26,0 -1.7,0.18 -2.74,0.21 -1.84,0.05 -3.85,-0.16 -5.59,0.11 -1.6,0.24 -3.76,0.16 -5.41,0.29 -4.11,0.31 -8.72,0.81 -12.76,1.57 -2.3,0.43 -1.64,0.29 -2.92,5.73 -0.38,1.62 -0.72,3.09 -1.14,4.76l-5.54 23.15c-0.4,1.56 -0.75,3.01 -1.1,4.6l-7.79 32.5c-0.76,2.94 -1.32,6.3 -2.18,9.22l-1.15 4.74z"/>
   <path class="fil1" d="M417.58 105.86c0,-5.05 0.23,-5.86 1.42,-10.58 1.36,-5.4 5.71,-12.45 10.98,-14.36 3.81,-1.39 9.01,-1.14 11.46,2.44 3.33,4.89 2.22,15.56 0.28,20.9 -2.16,5.98 -6.36,12.84 -13.33,13.59 -5.06,0.54 -7.96,-0.82 -9.69,-5.25 -0.62,-1.57 -1.12,-4.61 -1.12,-6.74zm-18.86 0.39c0,7.01 2.06,16.04 7.36,20.94 6.21,5.74 11.79,6.77 20.15,6.77 3.29,0 5.82,-0.53 8.44,-1.17 4.05,-1 7.89,-3.12 11.14,-5.56 2.69,-2.03 4.03,-3.24 6.29,-5.91 6,-7.11 10.27,-18.51 10.27,-28.43 0,-4.97 -0.22,-8.98 -1.96,-13.37 -1.08,-2.7 -2.06,-4.85 -3.98,-7.03 -5.61,-6.42 -11.63,-8.3 -21.56,-8.3 -6.1,0 -11.43,1.88 -15.32,4.13l-2.98 1.93c-5.16,3.84 -8.33,7.17 -11.57,12.8 -2.06,3.56 -3.18,6.34 -4.38,10.35 -0.94,3.11 -1.13,5.04 -1.59,8.24 -0.22,1.51 -0.31,3 -0.31,4.61z"/>
   <path class="fil1" d="M490.27 132.19l17.9 0.03c1.59,-0.02 1.04,-0.6 2.25,-5.41 0.36,-1.44 0.68,-2.83 1.03,-4.09l0.97 -4.14c1.5,-7.14 3.92,-15.67 5.46,-22.83l3.43 -14.66c1.77,-0.41 5.13,-0.79 7.26,-0.79 9.08,0 9.05,7.12 7.51,13.81l-9.08 38.08 19.06 0c0.87,-3.75 1.8,-7.58 2.71,-11.24 0.48,-1.93 0.79,-3.83 1.35,-5.73 0.29,-0.99 0.4,-1.9 0.67,-2.86 0.27,-0.91 0.44,-1.76 0.69,-2.85 0.45,-1.96 0.99,-3.72 1.37,-5.7 1.41,-7.36 4.53,-14.36 2.69,-23.55 -0.38,-1.89 -0.66,-2.67 -1.26,-4.25 -5.23,-13.96 -25.63,-12.52 -37.9,-10.07 -1.11,0.22 -1.79,0.45 -2.85,0.69 -2.06,0.46 -3.43,1 -5.31,1.56 -3.06,0.9 -2.7,-0.22 -4.02,6 -0.93,4.34 -2.47,9.7 -3.34,13.96l-2.66 10.91c-0.95,3.79 -1.72,7.33 -2.67,11.08 -0.43,1.71 -0.86,3.67 -1.29,5.39l-3.97 16.66z"/>
   <path class="fil1" d="M303.64 114.9c0,3.64 0.4,5.49 1.55,8.67 0.74,2.06 2.4,4.19 3.9,5.53 1.59,1.41 3.79,2.61 6.06,3.37 6.05,2 15.68,1.57 21.81,0.23 1.56,-0.34 6.38,-1.72 7.54,-2.27 0,-2.32 -1.37,-12.44 -1.37,-14.35 -1.38,0.03 -5.78,1.96 -9.63,1.96 -3.19,0 -6.16,0.3 -8.76,-1.65 -4.47,-3.35 -1.08,-13.09 0.12,-18l3.73 -15.33c0.5,-2.21 -0.34,-1.58 7.27,-1.58 4.65,0 9.3,0 13.95,0l3.73 -15.52 -20.82 0c0,-1.05 3.57,-14.82 4.12,-17.11 0.19,-0.79 0.57,-1.7 0.59,-2.55l-5.44 0.84c-1.69,0.25 -3.9,0.59 -5.62,0.87l-8.14 1.29c-0.53,0.18 -0.48,0.24 -0.66,0.92 -0.11,0.43 -0.24,1.05 -0.32,1.44l-10.98 46.41c-1.2,4.78 -2.63,11.81 -2.63,16.83z"/>
   <path class="fil1" d="M347.84 104.28c0,4.63 0.28,9.91 2.09,14.03 1.25,2.83 1.92,4.14 3.78,6.45 0.32,0.4 1.3,1.48 1.69,1.84 6.34,5.87 12.63,7.36 22.69,7.36 5.25,0 12.23,-1.39 16.7,-3.53l-1.37 -15.14c-0.53,0.12 -1.28,0.44 -1.88,0.68 -1.7,0.65 -4.58,1.32 -6.46,1.6 -5.99,0.88 -12.56,0.91 -15.82,-4.84 -3.7,-6.54 -1.96,-20.04 3.09,-25.79 2.08,-2.36 3.22,-3.4 6.14,-4.87 3.94,-1.98 10.87,-2.56 15.48,-1.13 0.8,0.24 1.97,0.61 2.79,0.94l2.03 0.73c0.79,0.24 0.65,0.15 1.39,-1.63 0.76,-1.84 5.53,-11.99 5.61,-13.06 -0.53,-0.12 -1.16,-0.41 -1.7,-0.66 -2.54,-1.15 -5.08,-1.71 -7.84,-2.36 -0.83,-0.2 -1.28,-0.25 -2.18,-0.38 -2.64,-0.39 -5,-0.33 -7.72,-0.33 -7.39,0 -13.92,2.04 -19.29,5.26 -5.06,3.03 -9.33,7.08 -12.53,12.04 -3.99,6.19 -6.69,14.65 -6.69,22.79z"/>
   <path class="fil1" d="M270.44 132.19l18.86 0 0.98 -4.12c1.34,-5.27 2.58,-11.47 3.93,-16.51 1.43,-5.31 2.61,-11.11 3.97,-16.47 0.33,-1.3 0.63,-2.74 0.98,-4.13 0.68,-2.69 1.27,-5.46 1.97,-8.26 0.61,-2.47 3.89,-15.59 3.89,-16.74l-18.86 0 -3.88 16.56c-1.48,7.08 -3.88,15.54 -5.41,22.7l-6.43 26.97z"/>
   <path class="fil1" d="M461 132.19l18.86 0c0.02,-1.24 3.54,-15.28 3.89,-16.54l7.9 -32.98c0.18,-0.71 0.25,-1.33 0.43,-2.12 0.15,-0.61 0.38,-1.3 0.53,-2.03l1.95 -8.26c0.22,-0.76 0.32,-1.18 0.51,-2.06 0.17,-0.8 0.44,-1.48 0.5,-2.24l-18.86 0c-0.27,0.57 -0.34,1.28 -0.51,2.04l-5.4 22.71c-0.64,3.13 -1.84,7.17 -2.45,10.32 -0.84,4.35 -3.09,12.14 -3.93,16.51 -0.18,0.95 -0.31,1.19 -0.52,2.03l-1.94 8.28c-0.27,1.32 -0.85,2.97 -0.96,4.34z"/>
   <path class="fil1" d="M287.93 48.27c0,1.61 0.29,2.9 0.75,4.16 1.15,3.12 5.29,5.47 8.68,5.47 4.35,0 7.15,-0.75 10.26,-3.88 3.99,-4.01 5.5,-11.61 0.79,-15.83 -3.26,-2.91 -8.96,-3.25 -12.96,-1.26 -1.43,0.71 -2.17,1.18 -3.28,2.22l-0.39 0.39c-1.27,1.38 -1.72,1.9 -2.61,3.68 -0.6,1.19 -1.24,3.36 -1.24,5.05z"/>
   <path class="fil1" d="M478.48 48.07c0,2.9 0.34,4.56 2.07,6.58 2.35,2.76 7.81,4.03 11.56,2.93 0.53,-0.16 1.49,-0.52 1.99,-0.76 0.57,-0.28 1.23,-0.66 1.75,-1 5.34,-3.49 8.13,-11.33 3.97,-16.71 -1.94,-2.5 -5.59,-3.42 -8.77,-3.42 -6.53,0 -12.57,5.88 -12.57,12.38z"/>
  </g>
  <path class="fil0" d="M22.87 81.57c0,10.62 1.71,16.74 5.38,25.61l2.45 4.84c1.35,2.43 4.53,6.93 6.2,8.79l3.56 3.93c0.35,0.32 0.58,0.43 0.99,0.83l7.09 5.87c2.11,1.41 4.55,2.97 6.83,4.11 0.94,0.47 1.67,0.82 2.59,1.25 10.61,4.95 22.86,6.29 34.47,4.44 1.13,-0.18 2.06,-0.42 3.21,-0.64 2.22,-0.44 4.94,-1.3 7.02,-2.08l4.08 -1.59c4.79,-2.07 9.75,-5.29 13.74,-8.54l7.41 -7.37c11.46,-13.14 16.65,-32.19 13.19,-49.36 -0.96,-4.77 -1.46,-6.84 -3.31,-11.47 -1.82,-4.56 -2.65,-5.71 -5.03,-9.75 -0.55,-0.92 -1,-1.5 -1.56,-2.29l-4 -5.12c-0.36,-0.37 -0.57,-0.53 -0.89,-0.93l-2.38 -2.48c-0.03,-0.03 -0.07,-0.07 -0.1,-0.1 -5.9,-5.84 -14.27,-10.86 -22.16,-13.47 -4.78,-1.59 -7.17,-2.05 -12.06,-2.72 -12.31,-1.71 -25.45,1.15 -36.21,7.13 -2.75,1.53 -6.48,4.04 -8.78,6l-3.96 3.54c-4.17,3.85 -10.13,12.3 -12.21,17.35l-2.11 5.18c-0.35,0.86 -0.57,1.79 -0.89,2.76 -1.46,4.32 -2.56,11.79 -2.56,16.28z"/>
  <path class="fil2" d="M60.33 60.1l0 -6.07 12.34 0c0.47,0 0.61,-0.15 0.61,-0.61l0 -7.7c8.7,0 8.15,-0.61 8.11,1.61 -0.01,0.81 -0.01,1.63 -0.01,2.44 0,5.3 -1.21,4.26 5.67,4.26l0 -8.31 7.69 0c0.47,0 0.61,0.14 0.61,0.61l0 8.3c1.53,0.04 3.04,0.76 4.19,1.27 1.57,0.71 2.09,1.21 3.27,2.2 3.25,2.73 4.46,8.12 2.6,12.07 -1.6,3.37 -4.54,6.08 -8.24,6.95l0 0.4c2.16,0.18 5.87,1.93 7.54,3.59 3.71,3.69 4.43,9.34 1.98,14.03 -2.11,4.04 -6.06,6.49 -10.4,7.43 -0.6,0.13 -0.94,0.01 -0.94,0.67l0 8.31 -8.3 0 0 -8.1 -5.06 0c-0.47,0 -0.61,0.14 -0.61,0.6l0 7.5 -8.1 0 0 -7.5c0,-0.46 -0.14,-0.6 -0.61,-0.6l-12.34 0 0 -6.69c2.07,0 5.87,0.55 5.87,-2.23l0 -31.59c0,-3.85 -5.87,-1.12 -5.87,-2.84zm18.01 21.67l0 12.16c0,1.25 0.73,1.82 2.03,1.82 3.99,0 8.89,0.48 12.14,-1.63 3.35,-2.16 4.51,-9.34 -0.53,-11.81 -2.99,-1.47 -9.2,-1.14 -13.03,-1.14 -0.47,0 -0.61,0.14 -0.61,0.6zm0 -19.44l0 11.75c3.66,0 10.15,0.39 13.03,-1.15 3.77,-2.01 3.65,-6.98 1.71,-8.93 -2.45,-2.46 -5.79,-2.28 -10.28,-2.28 -2.73,0 -4.46,-0.4 -4.46,0.61z"/>
  <g id="_1662440350288">
   <path class="fil2" d="M80.1 120.45c0.64,0 1.04,0.4 1.21,0.92 0.1,0.29 0.06,0.44 0.11,0.62l-2.62 0c0,-0.37 0.1,-0.82 0.33,-1.09 0.25,-0.27 0.56,-0.45 0.97,-0.45zm0.06 5.6c0.52,0 1.09,-0.1 1.52,-0.32 0.42,-0.22 0.71,-0.46 0.99,-0.85 0.1,-0.14 0.39,-0.66 0.4,-0.83 -0.11,0 -1.1,-0.18 -1.3,-0.21 -0.09,-0.02 -0.15,-0.02 -0.23,-0.03 -0.07,-0.01 -0.15,-0.04 -0.22,-0.04 -0.05,0.09 -0.05,0.18 -0.14,0.34 -0.54,1.04 -2.03,0.64 -2.32,-0.42 -0.05,-0.17 -0.07,-0.31 -0.08,-0.5 -0.01,-0.09 -0.04,-0.12 0.04,-0.12l4.35 0c0,-0.66 -0.02,-1.2 -0.19,-1.78 -0.17,-0.55 -0.33,-0.85 -0.66,-1.25 -0.04,-0.05 -0.05,-0.07 -0.1,-0.11l-0.47 -0.38c-0.87,-0.56 -2.17,-0.62 -3.13,-0.14 -0.25,0.12 -0.51,0.32 -0.71,0.52 -0.03,0.03 -0.06,0.06 -0.1,0.09 -0.04,0.05 -0.05,0.08 -0.1,0.13 -0.13,0.15 -0.22,0.3 -0.33,0.49l-0.18 0.41c-0.1,0.25 -0.16,0.55 -0.2,0.84 -0.13,0.94 -0.03,1.92 0.43,2.75 0.41,0.73 1.13,1.2 1.96,1.33 0.22,0.04 0.51,0.08 0.77,0.08z"/>
   <path class="fil2" d="M91.66 121.87c0,-1.07 0.96,-1.71 1.86,-1.29 0.28,0.13 0.53,0.42 0.63,0.72 0.08,0.24 0.11,0.43 0.11,0.69l-2.6 0 0 -0.12zm-1.85 0.74c0,1.07 0.31,1.94 0.82,2.5 0.02,0.02 0.03,0.02 0.05,0.05 0.02,0.02 0.03,0.04 0.04,0.05 0.05,0.04 0.06,0.05 0.11,0.09 0.38,0.37 0.91,0.59 1.43,0.67 0.68,0.12 1.24,0.11 1.9,-0.09l0.32 -0.12c0.55,-0.26 1.04,-0.74 1.29,-1.3 0.19,-0.41 0.2,-0.39 0.1,-0.41l-1.71 -0.28c-0.01,0.2 -0.2,0.51 -0.34,0.65 -0.65,0.65 -2.2,0.25 -2.2,-1.35l4.4 0c0,-0.84 0,-1.16 -0.23,-1.95l-0.17 -0.43c-0.56,-1.17 -1.63,-1.6 -2.86,-1.6 -0.2,0 -0.54,0.05 -0.7,0.1 -0.16,0.05 -0.29,0.08 -0.44,0.15 -0.59,0.29 -1.06,0.7 -1.37,1.28 -0.09,0.17 -0.19,0.39 -0.24,0.57 -0.14,0.52 -0.2,0.83 -0.2,1.42z"/>
   <path class="fil2" d="M65.94 120.19l0 -0.96 -1.64 0 0 6.66 1.78 0c0,-0.76 -0.04,-3.61 0.06,-4.21 0.05,-0.32 0.12,-0.55 0.32,-0.77 0.01,-0.01 0.02,-0.01 0.03,-0.03 0.08,-0.09 0.21,-0.18 0.32,-0.24 0.56,-0.33 1.42,-0.25 1.66,0.46 0.12,0.34 0.13,1.05 0.13,1.51l0 3.28 1.78 0 0 -3.88c0,-1.18 -0.06,-2.23 -1.13,-2.69 -0.78,-0.33 -1.73,-0.32 -2.45,0.11 -0.08,0.06 -0.16,0.1 -0.24,0.16 -0.3,0.21 -0.59,0.58 -0.62,0.6z"/>
   <path class="fil2" d="M97.3 121.03c0,0.37 0,0.59 0.17,0.91 0.32,0.64 0.83,0.86 1.53,1.09 0.2,0.07 0.45,0.14 0.66,0.2l1.41 0.35c0.18,0.06 0.32,0.11 0.38,0.28 0.07,0.19 0.05,0.38 -0.07,0.53 -0.15,0.2 -0.42,0.29 -0.67,0.33 -0.73,0.12 -1.54,0.02 -1.81,-0.75 -0.03,-0.06 -0.05,-0.19 -0.08,-0.24 -0.12,0.03 -0.31,0.06 -0.43,0.07l-1.33 0.21c0,0.14 0.11,0.38 0.16,0.48l0.25 0.41c0.1,0.14 0.18,0.23 0.29,0.34 1.07,1.06 3.81,1.09 4.84,0.05 0.3,-0.29 0.48,-0.52 0.6,-0.96 0.12,-0.42 0.08,-0.98 -0.1,-1.33 -0.31,-0.63 -0.98,-0.89 -1.62,-1.09l-0.78 -0.2c-0.38,-0.08 -1.02,-0.25 -1.38,-0.38 -0.61,-0.22 -0.62,-0.96 0.8,-0.96 0.43,0 0.86,0.11 1.08,0.44 0.06,0.09 0.15,0.23 0.16,0.36l1.68 -0.3c-0.02,-0.22 -0.23,-0.61 -0.36,-0.79 -0.34,-0.49 -0.8,-0.74 -1.39,-0.88 -0.91,-0.2 -2.39,-0.17 -3.15,0.35 -0.4,0.28 -0.84,0.81 -0.84,1.48z"/>
   <path class="fil2" d="M105.03 117.97l0 1.26 -0.8 0 0 1.44 0.8 0 0 3.24c0,0.77 0.04,1.47 0.59,1.83 0.06,0.04 0.09,0.05 0.15,0.08l0.17 0.08c0.13,0.05 0.23,0.07 0.37,0.1 0.47,0.11 1.08,0.02 1.52,-0.11 0.12,-0.03 0.21,-0.08 0.32,-0.1 0,-0.13 -0.02,-0.23 -0.03,-0.35l-0.08 -0.69c-0.01,-0.1 -0.03,-0.22 -0.03,-0.34l-0.35 0.1c-0.26,0.08 -0.66,0.12 -0.79,-0.18 -0.05,-0.11 -0.06,-0.43 -0.06,-0.6l0 -3.06 1.14 0c0.04,0 0.06,-0.01 0.06,-0.06l0 -1.38 -1.2 0 0 -2.32c-0.09,0.01 -1.48,0.84 -1.7,0.97 -0.04,0.02 -0.08,0.03 -0.08,0.09z"/>
   <path class="fil2" d="M72.46 117.97l0 1.26 -0.8 0 0 1.38c0,0.05 0.02,0.06 0.06,0.06l0.74 0 0 2.9c0,0.59 -0.01,1.33 0.27,1.83 0.46,0.83 2.16,0.74 2.87,0.37 -0.04,-0.18 -0.09,-0.76 -0.12,-1.02 -0.01,-0.09 -0.04,-0.25 -0.04,-0.34 -0.17,0.01 -1,0.43 -1.15,-0.14 -0.08,-0.27 -0.05,-3.17 -0.05,-3.6l1.14 0c0.05,0 0.06,-0.01 0.06,-0.06l0 -1.38 -1.2 0 0 -2.32c-0.08,0.02 -0.82,0.46 -0.91,0.51l-0.78 0.46c-0.04,0.02 -0.09,0.03 -0.09,0.09z"/>
   <path class="fil2" d="M60.26 125.89l1.88 0 0 -9.18 -1.88 0 0 9.18z"/>
   <path class="fil2" d="M86.41 120.13l0 -0.72c0,-0.09 0.02,-0.18 -0.06,-0.18l-1.54 0c-0.05,0 -0.06,0.01 -0.06,0.06l0 6.6 1.78 0c0,-0.43 -0.03,-2.98 0.03,-3.45 0.01,-0.07 0,-0.15 0.01,-0.23 0.01,-0.05 0.02,-0.14 0.03,-0.21 0.09,-0.65 0.32,-1.33 1.09,-1.33 0.33,0 0.57,0.16 0.84,0.3l0.27 -0.77c0.03,-0.09 0.26,-0.71 0.27,-0.79 -0.07,-0.01 -0.08,-0.03 -0.13,-0.06 -0.41,-0.25 -1.09,-0.35 -1.6,-0.15 -0.16,0.07 -0.26,0.14 -0.38,0.24 -0.3,0.28 -0.4,0.52 -0.55,0.69z"/>
  </g>
  <g id="_1662440353360">
   <path class="fil1" d="M8.5 84.61c0,-5.37 -0.05,-6.97 0.67,-12.5l1.94 -9.4c0.19,-0.64 0.3,-0.98 0.51,-1.71 2.62,-9.21 8.14,-19.02 14.35,-26.36 5.93,-7.02 14.58,-13.97 22.68,-18.02 1.12,-0.56 1.98,-1.04 3.14,-1.51 5.45,-2.22 6.94,-3.06 13.39,-4.63 11.45,-2.79 22.67,-2.62 34.13,-0.12 1.2,0.26 2.53,0.58 3.55,0.9l6.79 2.33c4.83,1.71 9.01,4.31 13.32,6.93 0.68,0.42 0.82,0.54 1.45,0.98 1.87,1.3 3.46,2.49 5.2,3.9 3.82,3.09 5.95,5.69 9.1,8.92 4.13,4.24 9.84,14.11 12.12,19.68 3.19,7.75 5.64,17.85 5.64,26.36 0,5.56 0.09,6.89 -0.72,12.64 -0.4,2.88 -0.84,5.12 -1.5,7.61 -2.46,9.2 -5.91,17.22 -11.57,24.88 -0.35,0.47 -0.56,0.83 -0.92,1.31l-7.5 8.5c-11.17,11.17 -29.39,21.21 -51.68,21.21 -2.73,0 -6.06,-0.13 -8.62,-0.48 -5.1,-0.71 -6.36,-0.98 -11.34,-2.23 -0.8,-0.2 -1.04,-0.32 -1.7,-0.52 -0.66,-0.2 -1.25,-0.39 -1.84,-0.59 -1.19,-0.4 -2.11,-0.74 -3.29,-1.16l-4.82 -2.07c-0.54,-0.26 -0.96,-0.43 -1.52,-0.71 -0.6,-0.3 -0.88,-0.47 -1.45,-0.78 -0.5,-0.26 -0.98,-0.51 -1.57,-0.86 -4.81,-2.86 -6.45,-3.88 -10.84,-7.38 -2.88,-2.29 -7.02,-6.41 -9.5,-9.33l-0.19 -0.22c-0.03,-0.03 -0.06,-0.07 -0.09,-0.11 -5.84,-6.89 -9.57,-13.81 -12.92,-22.31 -0.86,-2.18 -1.57,-4.69 -2.13,-6.99 -0.18,-0.74 -0.32,-0.99 -0.49,-1.73 -0.9,-3.81 -1.78,-10.55 -1.78,-14.43zm-8.5 -3.24c0,9.04 0.58,12.22 2.24,20.44l1.07 4c1.32,4.04 2.3,7.09 4.25,11.14 2.16,4.51 4.45,8.93 7.48,12.97l5.55 7.01c0.51,0.61 0.63,0.83 1.22,1.41l5.16 5.16c6.87,6.36 16.58,12.34 25.2,15.71 1.28,0.5 2.49,0.87 3.7,1.36 6.72,2.69 19.57,4.45 26.52,4.45 6.23,0 13.25,-0.82 18.34,-2.11 1.46,-0.37 2.64,-0.66 4.05,-1.01 2.6,-0.65 5.05,-1.61 7.6,-2.53 6.62,-2.39 17.15,-8.5 22.69,-13.34 6.01,-5.26 7.71,-7.07 12.55,-12.96 1.67,-2.02 4.82,-6.73 6.22,-9.17 13.1,-22.74 15.11,-51.91 3.72,-75.61 -1.69,-3.54 -3.11,-6.53 -5.33,-9.86 -2.22,-3.35 -6.02,-8.74 -8.75,-11.5 -0.48,-0.49 -0.84,-0.82 -1.32,-1.31 -0.54,-0.54 -0.7,-0.86 -1.24,-1.4l-0.61 -0.6c-4.82,-4.19 -4.46,-4.17 -10.4,-8.63 -3.4,-2.55 -9.03,-5.65 -12.97,-7.48 -2.98,-1.39 -4.24,-1.81 -7.22,-2.91 -12.12,-4.44 -25.12,-5.49 -37.91,-3.9 -5.16,0.64 -11.71,2.08 -16.4,3.85 -1.33,0.5 -2.38,0.82 -3.7,1.35l-5.21 2.29c-0.48,0.24 -0.37,0.25 -0.76,0.45 -0.38,0.2 -0.61,0.24 -0.99,0.43l-3.24 1.82c-2.21,1.34 -4.02,2.34 -6.2,3.93 -2.44,1.77 -4.8,3.51 -7.03,5.52l-2.72 2.55c-1.45,1.4 -0.68,0.29 -2.54,2.52 -0.41,0.48 -0.85,0.87 -1.31,1.32l-2.39 2.67c-1.54,1.96 -3,3.67 -4.38,5.75 -4.68,7.01 -6.49,10.28 -9.68,18.27 -1.47,3.7 -3.37,10.25 -3.88,13.94 -0.18,1.32 -0.61,2.97 -0.74,4.32 -0.32,3.22 -0.64,6.21 -0.64,9.69z"/>
   <path class="fil3" d="M83.18 18.14c2.87,0 3.05,-4.3 0.05,-4.44 -7.58,-0.1 -14.9,0.95 -22.13,3.21l-0.44 0.15c-2.78,0.92 -1.38,5.12 1.39,4.21l0.38 -0.12c6.83,-2.12 13.6,-3.11 20.75,-3.01zm-53.1 27.09c-1.71,2.3 -5.27,-0.11 -3.59,-2.6 4.42,-6.15 9.64,-11.4 15.76,-15.86l0.37 -0.27c2.4,-1.69 4.94,1.94 2.56,3.62l-0.32 0.24c-5.77,4.22 -10.6,9.07 -14.78,14.87zm-8.71 16.73c0.88,-2.73 -3.16,-4.22 -4.21,-1.39 -2.41,7.17 -3.63,14.47 -3.69,22.04l0 0.47c0.03,2.93 4.47,2.87 4.44,-0.04l0 -0.4c0.07,-7.15 1.19,-13.9 3.46,-20.68zm-0.49 39.89c-0.93,-2.71 -5.06,-1.49 -4.21,1.4 2.36,7.19 5.74,13.77 10.23,19.88l0.28 0.37c1.77,2.33 5.3,-0.37 3.53,-2.68l-0.24 -0.33c-4.22,-5.77 -7.36,-11.85 -9.59,-18.64zm23.43 32.21c-2.31,-1.7 -5.01,1.65 -2.68,3.54 6.03,4.59 12.55,8.09 19.71,10.57l0.44 0.15c2.78,0.91 4.15,-3.31 1.39,-4.21l-0.39 -0.14c-6.75,-2.35 -12.78,-5.58 -18.47,-9.91zm37.56 12.77c-2.87,0.04 -3,4.34 0.01,4.44 7.57,0.02 14.88,-1.12 22.08,-3.46l0.44 -0.15c2.78,-0.95 1.32,-5.14 -1.43,-4.2l-0.39 0.13c-6.8,2.19 -13.56,3.26 -20.71,3.24zm37.94 -11.96c-2.3,1.7 0.1,5.27 2.6,3.6 6.16,-4.41 11.42,-9.61 15.9,-15.72l0.28 -0.37c1.69,-2.39 -1.94,-4.95 -3.62,-2.57l-0.24 0.32c-4.24,5.76 -9.1,10.58 -14.92,14.74zm23.81 -32.11c-0.87,2.74 3.17,4.22 4.21,1.4 2.4,-7.19 3.62,-14.48 3.66,-22.06l0 -0.46c-0.03,-2.93 -4.46,-2.87 -4.43,0.04l0 0.4c-0.06,7.15 -1.17,13.9 -3.44,20.68zm0.35 -39.98c0.95,2.71 5.07,1.46 4.2,-1.43 -2.41,-7.18 -5.83,-13.73 -10.36,-19.81l-0.28 -0.36c-1.79,-2.33 -5.3,0.39 -3.52,2.7l0.25 0.32c4.26,5.74 7.44,11.8 9.71,18.58zm-23.18 -32.04c2.34,1.67 4.99,-1.72 2.62,-3.58 -6.09,-4.5 -12.66,-7.9 -19.85,-10.27l-0.44 -0.14c-2.8,-0.88 -4.11,3.37 -1.33,4.23l0.38 0.13c6.79,2.25 12.87,5.39 18.62,9.63z"/>
  </g>
 </g>
</svg>
