<?xml version="1.0" encoding="UTF-8"?>
<!DOCTYPE svg PUBLIC "-//W3C//DTD SVG 1.0//EN" "http://www.w3.org/TR/2001/REC-SVG-20010904/DTD/svg10.dtd">
<!-- Creator: CorelDRAW 2017 -->
<svg xmlns="http://www.w3.org/2000/svg" xml:space="preserve" width="1921px" height="668px" version="1.0" style="shape-rendering:geometricPrecision; text-rendering:geometricPrecision; image-rendering:optimizeQuality; fill-rule:evenodd; clip-rule:evenodd"
viewBox="0 0 1920.16 667.55"
 xmlns:xlink="http://www.w3.org/1999/xlink">
 <defs>
  <style type="text/css">
   <![CDATA[
    .fil0 {fill:none}
    .fil1 {fill:#1A2957}
    .fil2 {fill:#1A2957;fill-rule:nonzero}
   ]]>
  </style>
 </defs>
 <g id="Слой_x0020_1">
  <metadata id="CorelCorpID_0Corel-Layer"/>
  <rect class="fil0" y="-0.01" width="1920.16" height="667.55"/>
  <g id="_1662160567232">
   <path class="fil1" d="M535.27 667.55c6.78,-6.63 13.63,-13.02 20.52,-19.11 55.21,-48.86 131.92,-94.09 200.94,-116.88 9.56,-3.15 16.95,-5.95 26.73,-8.36 45.81,-11.28 58.61,-16.3 111.66,-21.3 94.16,-8.88 183.07,5.49 271.16,38.57 9.2,3.46 19.38,7.54 27.18,11.27l51.16 26.34c36.43,19.13 66.61,44.68 97.76,70.42 4.99,4.12 5.91,5.25 10.4,9.45 3.48,3.26 6.83,6.44 10.08,9.6l91.93 0c-13.76,-16.39 -20.94,-24.78 -50.89,-54.91 -24.02,-24.17 -65.16,-55.32 -94.31,-74.44 -22.07,-14.48 -31.58,-19.29 -53.97,-31.41 -91.14,-49.34 -193.12,-72.69 -296.57,-74.87 -99.81,-2.1 -216.94,22.9 -306.18,69.9 -63.43,33.4 -136.77,83.89 -185.29,137.87 -9.17,10.2 -17.23,19.31 -24.53,27.86l92.22 0z"/>
   <path class="fil2" d="M1029.18 583.59c22.78,3.3 29.21,-30.61 5.5,-35.19 -60.01,-9.6 -119.39,-9.67 -179.41,-0.09l-3.66 0.61c-23.18,4.09 -16.88,39.13 6.12,35.09l3.21 -0.53c56.67,-8.93 111.59,-8.95 168.24,0.11zm271.32 83.96l-58.9 0c-20.52,-14.18 -42.11,-26.93 -65.02,-38.44l-2.92 -1.44c-21.06,-10.08 -5.78,-42.25 15.45,-32.08l3.34 1.63c39.05,19.52 74.93,42.88 108.05,70.33zm-641.74 0l-59.41 0c29.26,-23.99 60.76,-44.87 94.79,-62.8l3.29 -1.72c21,-10.64 37,21.19 16.15,31.74l-2.88 1.5c-18.13,9.62 -35.4,20.01 -51.94,31.28z"/>
  </g>
 </g>
</svg>
