<?xml version="1.0" encoding="UTF-8"?>
<!DOCTYPE svg PUBLIC "-//W3C//DTD SVG 1.0//EN" "http://www.w3.org/TR/2001/REC-SVG-20010904/DTD/svg10.dtd">
<!-- Creator: CorelDRAW 2017 -->
<svg xmlns="http://www.w3.org/2000/svg" xml:space="preserve" width="1922px" height="931px" version="1.0" style="shape-rendering:geometricPrecision; text-rendering:geometricPrecision; image-rendering:optimizeQuality; fill-rule:evenodd; clip-rule:evenodd"
viewBox="0 0 1921.99 931.45"
 xmlns:xlink="http://www.w3.org/1999/xlink">
 <defs>
  <style type="text/css">
   <![CDATA[
    .fil3 {fill:#213D8F}
    .fil2 {fill:#213D8F}
    .fil0 {fill:#DCDFED}
    .fil4 {fill:#FF7A0B}
    .fil5 {fill:white}
    .fil1 {fill:#DCDFED;fill-rule:nonzero}
   ]]>
  </style>
 </defs>
 <g id="Слой_x0020_1">
  <metadata id="CorelCorpID_0Corel-Layer"/>
  <g id="_1697826044016">
   <g>
    <path class="fil0" d="M544.98 280.7c6.9,-6.77 13.87,-13.28 20.89,-19.48 55.2,-48.85 131.89,-94.07 200.89,-116.85 9.56,-3.16 16.95,-5.95 26.73,-8.36 45.8,-11.28 58.59,-16.29 111.64,-21.3 94.13,-8.87 183.03,5.49 271.1,38.57 9.2,3.45 19.37,7.53 27.17,11.26l51.15 26.34c36.42,19.13 66.59,44.66 97.74,70.4 4.98,4.12 5.91,5.25 10.39,9.45 3.63,3.39 7.09,6.69 10.47,9.97l91.84 0c-13.97,-16.63 -21.03,-24.92 -51.19,-55.27 -24.02,-24.17 -65.15,-55.31 -94.29,-74.42 -22.07,-14.48 -31.58,-19.29 -53.96,-31.41 -91.12,-49.32 -193.08,-72.67 -296.51,-74.85 -41.67,-0.88 -95.33,3.02 -134.64,11.58 -11.15,2.43 -19.88,3.83 -30.98,6.5l-43.94 12.17c-4.14,1.32 -3.28,1.5 -6.62,2.66 -3.23,1.12 -5.1,1.17 -8.32,2.28l-27.83 10.72c-19.09,8.03 -34.6,13.87 -53.78,23.97 -21.43,11.29 -42.16,22.31 -62.18,35.75l-24.54 17.05c-13.18,9.45 -5.74,1.51 -23.11,17.06 -3.77,3.37 -7.78,5.96 -11.92,9.01l-22.09 18.41c-14.47,13.81 -28.01,25.66 -41.41,40.56 -9.3,10.35 -17.46,19.58 -24.85,28.23l92.15 0z"/>
    <path class="fil1" d="M1039.16 196.38c22.77,3.3 29.2,-30.6 5.5,-35.18 -60,-9.6 -119.37,-9.66 -179.37,-0.08l-3.67 0.6c-23.17,4.09 -16.87,39.13 6.12,35.08l3.21 -0.52c56.66,-8.93 111.56,-8.96 168.21,0.1zm271.71 84.32l-58.8 0c-20.68,-14.33 -42.44,-27.2 -65.55,-38.8l-2.92 -1.45c-21.05,-10.08 -5.78,-42.23 15.45,-32.07l3.34 1.63c39.22,19.6 75.23,43.08 108.48,70.69zm-642.59 0l-59.31 0c29.38,-24.14 61.02,-45.14 95.22,-63.16l3.29 -1.72c20.99,-10.63 36.99,21.18 16.15,31.73l-2.88 1.5c-18.33,9.72 -35.78,20.24 -52.47,31.65z"/>
   </g>
   <rect class="fil2" x="0.01" y="280.7" width="1921.97" height="650.75"/>
   <path class="fil3" d="M0 201.38l161.62 -161.61c4.09,-4.09 10.78,-4.09 14.87,0l0 0c4.09,4.08 4.09,10.77 0,14.86l-176.49 176.49 0 -29.74z"/>
   <path class="fil4" d="M0 264.99l138.8 -138.8c11.33,-11.33 29.88,-11.33 41.21,0l0 0c11.34,11.34 11.34,29.88 0,41.22l-166.62 166.62c-3.83,3.83 -8.47,6.36 -13.39,7.6l0 -76.64z"/>
   <path class="fil5" d="M70.53 307.07l198.33 -198.33c2.62,-2.61 6.89,-2.61 9.5,0l0.01 0c2.61,2.62 2.61,6.89 0,9.51l-198.33 198.33c-2.62,2.61 -6.89,2.61 -9.51,0l0 0c-2.61,-2.62 -2.61,-6.89 0,-9.51z"/>
   <path class="fil4" d="M8.66 410.1l409.12 -409.12c1.3,-1.31 3.44,-1.31 4.75,0l0 0c1.31,1.31 1.31,3.45 0,4.75l-409.12 409.12c-1.3,1.31 -3.44,1.31 -4.75,0l0 0c-1.31,-1.31 -1.31,-3.45 0,-4.75z"/>
   <path class="fil3" d="M117.63 334.93l289.19 -289.19c5.55,-5.55 14.64,-5.55 20.19,0l0 0c5.56,5.56 5.56,14.64 0,20.2l-289.19 289.19c-5.55,5.55 -14.64,5.55 -20.19,0l0 -0.01c-5.55,-5.55 -5.55,-14.64 0,-20.19z"/>
   <path class="fil5" d="M81.91 428.29l299.29 -299.29c2.78,-2.77 7.32,-2.77 10.1,0l0 0c2.78,2.78 2.78,7.32 0,10.1l-299.29 299.29c-2.77,2.77 -7.32,2.77 -10.09,0l-0.01 0c-2.77,-2.78 -2.77,-7.32 0,-10.1z"/>
   <path class="fil3" d="M1921.98 264.73l-134.81 134.8c-4.09,4.09 -10.78,4.09 -14.87,0l0 0c-4.09,-4.08 -4.09,-10.77 0,-14.86l149.68 -149.68 0 29.74z"/>
   <path class="fil4" d="M1921.99 200.44l-160.3 160.3c-11.33,11.33 -29.88,11.33 -41.21,0l0 0c-11.34,-11.34 -11.34,-29.88 0,-41.22l201.51 -201.52 0 82.44z"/>
   <path class="fil5" d="M1796.98 212.34l-198.33 198.32c-2.61,2.62 -6.89,2.62 -9.5,0l0 0c-2.62,-2.61 -2.62,-6.89 0,-9.5l198.33 -198.33c2.61,-2.61 6.89,-2.61 9.5,0l0 0c2.62,2.62 2.62,6.89 0,9.51z"/>
   <path class="fil4" d="M1921.98 47.36l-390.97 390.96c-1.3,1.3 -3.44,1.3 -4.75,0l0 0c-1.3,-1.31 -1.3,-3.45 0,-4.75l395.72 -395.72 0 9.51z"/>
   <path class="fil3" d="M1824.22 105.98l-259.01 259c-4.97,4.98 -13.11,4.98 -18.08,0l0 0c-4.98,-4.97 -4.98,-13.11 0,-18.08l259 -259.01c4.97,-4.97 13.11,-4.97 18.08,0l0.01 0.01c4.97,4.97 4.97,13.11 0,18.08z"/>
   <path class="fil5" d="M1842.77 32.99l-299.29 299.29c-2.77,2.78 -7.31,2.78 -10.09,0l0 0c-2.78,-2.78 -2.78,-7.32 0,-10.1l299.29 -299.28c2.77,-2.78 7.31,-2.78 10.09,0l0 0c2.78,2.77 2.78,7.32 0,10.09z"/>
  </g>
 </g>
</svg>
