<?xml version="1.0" encoding="UTF-8"?>
<!DOCTYPE svg PUBLIC "-//W3C//DTD SVG 1.0//EN" "http://www.w3.org/TR/2001/REC-SVG-20010904/DTD/svg10.dtd">
<!-- Creator: CorelDRAW 2017 -->
<svg xmlns="http://www.w3.org/2000/svg" xml:space="preserve" width="1922px" height="932px" version="1.0" style="shape-rendering:geometricPrecision; text-rendering:geometricPrecision; image-rendering:optimizeQuality; fill-rule:evenodd; clip-rule:evenodd"
viewBox="0 0 1921.98 932.32"
 xmlns:xlink="http://www.w3.org/1999/xlink">
 <defs>
  <style type="text/css">
   <![CDATA[
    .fil1 {fill:#DCDFED}
    .fil0 {fill:white}
    .fil2 {fill:#DCDFED;fill-rule:nonzero}
   ]]>
  </style>
 </defs>
 <g id="Слой_x0020_1">
  <metadata id="CorelCorpID_0Corel-Layer"/>
  <rect class="fil0" y="0.01" width="1921.98" height="932.32"/>
  <g id="_1483062561440">
   <path class="fil1" d="M1473.95 0c-28.1,64.54 -62.29,119.58 -112.03,169.78 -3.07,3.11 -5.09,5.55 -8.32,8.77l-65.35 55.39c-95.68,71.38 -242.93,126.67 -409.62,102.39 -20.47,-2.98 -45.25,-7.63 -63.96,-13.05 -37.41,-10.85 -46.54,-14.25 -82.41,-28.98 -5.74,-2.36 -7.39,-3.59 -12.13,-5.8 -4.73,-2.22 -8.96,-4.25 -13.17,-6.38 -8.47,-4.27 -14.95,-7.86 -23.35,-12.29l-33.75 -20.73c-3.78,-2.49 -6.76,-4.23 -10.63,-6.93 -4.15,-2.89 -6.01,-4.51 -9.96,-7.42 -3.44,-2.52 -6.79,-4.91 -10.79,-8.15 -32.92,-26.63 -44.01,-36.05 -73.05,-67.02 -19.04,-20.3 -45.52,-55.58 -60.95,-80.11l-1.14 -1.85c-0.16,-0.28 -0.4,-0.67 -0.56,-0.93 -15.97,-25.58 -28.86,-50.76 -39.64,-76.69l-68.9 0c7.86,21.81 16.82,43.2 28.05,63.82l33.89 58.43c3.18,5.14 3.85,6.89 7.61,11.88l32.97 44.27c44.45,55.02 110.53,110.35 171.35,144.92 9.03,5.13 17.66,9.23 26.22,14.2 47.29,27.48 141.49,54.64 193.52,62.22 46.61,6.79 99.98,8.32 139.47,4.22 11.34,-1.18 20.47,-2.07 31.39,-3.16 20.17,-2.02 39.53,-6.54 59.57,-10.63 52.17,-10.66 137.57,-44.89 184.29,-75.1 50.67,-32.76 65.33,-44.47 108.02,-83.27 14.63,-13.3 43.31,-45.04 56.52,-61.81 40.31,-51.19 72.43,-108.87 95.28,-169.99l-68.44 0z"/>
   <path class="fil2" d="M1431.3 0c-2.46,5.29 -5.01,10.55 -7.65,15.8 -10.9,19.95 -39.49,4.48 -30.01,-15.02l0.39 -0.78 37.27 0zm-945.78 0l37.3 0c1.69,3.37 3.43,6.73 5.21,10.08l1.45 2.71c10.66,19.22 -18.63,35.58 -29.38,16.2l-1.65 -3.08c-4.56,-8.57 -8.87,-17.2 -12.93,-25.91zm131.2 126.68c-15.41,-15.25 -39.26,6.84 -23.87,23.58 40.09,40.86 85.03,74.15 135.87,100.49l3.11 1.6c19.84,9.87 34.69,-20.22 15.01,-30l-2.74 -1.4c-47.91,-24.96 -89.53,-55.69 -127.38,-94.27zm267.06 136.45c-21.49,-2.85 -27.19,29.16 -4.8,33.21 56.62,8.39 112.54,7.8 168.97,-1.87l3.45 -0.6c21.78,-4.11 15.46,-37.05 -6.14,-32.98l-3.03 0.53c-53.27,9.02 -104.99,9.64 -158.45,1.71zm296.84 -48.16c-19.12,10.23 -5.04,39.54 15.49,29.76 50.87,-26.26 95.92,-59.41 136.07,-100.21l2.45 -2.51c15.28,-16.05 -9.09,-39.1 -24.25,-23.17l-2.15 2.19c-37.97,38.43 -79.6,69.15 -127.61,93.94z"/>
  </g>
 </g>
</svg>
